/* XPM */
static char * enemy_5_xpm[] = {
"64 64 240 2",
"  	c #FF00FF",
". 	c #111111",
"+ 	c #000000",
"@ 	c #18151C",
"# 	c #8B7F93",
"$ 	c #9471AB",
"% 	c #9877B0",
"& 	c #987DAE",
"* 	c #AD8AC6",
"= 	c #9C6C9F",
"- 	c #878787",
"; 	c #94889D",
"> 	c #9578AA",
", 	c #BB99D4",
"' 	c #B693D0",
") 	c #BC98D4",
"! 	c #BB98D5",
"~ 	c #B282B7",
"{ 	c #BE5A73",
"] 	c #998DA2",
"^ 	c #C7647E",
"/ 	c #AF8CC8",
"( 	c #AE8DC8",
"_ 	c #B495C9",
": 	c #CC6882",
"< 	c #D64D56",
"[ 	c #C05C75",
"} 	c #CA6680",
"| 	c #92899A",
"1 	c #B08DC8",
"2 	c #9173A5",
"3 	c #9C7CB5",
"4 	c #BF8EC3",
"5 	c #C7637D",
"6 	c #CA5E78",
"7 	c #B794D1",
"8 	c #990030",
"9 	c #E89296",
"0 	c #1C0A0B",
"a 	c #301C23",
"b 	c #2C2C2C",
"c 	c #4E4E4E",
"d 	c #5A5A5A",
"e 	c #676767",
"f 	c #A376A8",
"g 	c #A071A4",
"h 	c #8F75A1",
"i 	c #9B8BA5",
"j 	c #929292",
"k 	c #9C82AE",
"l 	c #8D789A",
"m 	c #9C95A2",
"n 	c #9E92A5",
"o 	c #9A9A9A",
"p 	c #B9B9B9",
"q 	c #A8A8A8",
"r 	c #B4B4B4",
"s 	c #9F92A9",
"t 	c #9A90A1",
"u 	c #8F8C90",
"v 	c #8C8C8C",
"w 	c #ACACAC",
"x 	c #A5A5A5",
"y 	c #9F9F9F",
"z 	c #A2A2A2",
"A 	c #A48FB1",
"B 	c #AE92C0",
"C 	c #928899",
"D 	c #9F99A5",
"E 	c #919091",
"F 	c #B1B1B1",
"G 	c #6E6E6E",
"H 	c #D7D7D7",
"I 	c #BABABA",
"J 	c #919191",
"K 	c #BCBCBC",
"L 	c #B3B3B3",
"M 	c #9D9D9D",
"N 	c #987AAC",
"O 	c #A48FB2",
"P 	c #897A94",
"Q 	c #9885A6",
"R 	c #A1A1A1",
"S 	c #9E9E9F",
"T 	c #7D7D7D",
"U 	c #6F6F6F",
"V 	c #949494",
"W 	c #464646",
"X 	c #616161",
"Y 	c #545454",
"Z 	c #686868",
"` 	c #A6A6A6",
" .	c #ABABAB",
"..	c #AFAFAF",
"+.	c #CD647C",
"@.	c #9B87AA",
"#.	c #958A9E",
"$.	c #9689A0",
"%.	c #878488",
"&.	c #ADADAD",
"*.	c #737373",
"=.	c #B8B8B8",
"-.	c #E0E0E0",
";.	c #AEAEAE",
">.	c #BC7083",
",.	c #A089AF",
"'.	c #BE8FC3",
").	c #9C829E",
"!.	c #8F8595",
"~.	c #8C8A8D",
"{.	c #9D9C9D",
"].	c #9B9B9B",
"^.	c #AFAEB0",
"/.	c #6A696A",
"(.	c #6D6D6D",
"_.	c #E4E4E4",
":.	c #A9A9A9",
"<.	c #A89AB0",
"[.	c #B65F75",
"}.	c #AF6376",
"|.	c #C06279",
"1.	c #B18EC9",
"2.	c #CB545B",
"3.	c #BA5C72",
"4.	c #AF9DBB",
"5.	c #9D97A2",
"6.	c #ACABAC",
"7.	c #828282",
"8.	c #909090",
"9.	c #898989",
"0.	c #666666",
"a.	c #DADADA",
"b.	c #989898",
"c.	c #5F5F5F",
"d.	c #9D8FA5",
"e.	c #9F89AF",
"f.	c #A27EA5",
"g.	c #B4A0C2",
"h.	c #B07E8A",
"i.	c #A789BD",
"j.	c #C26B82",
"k.	c #C98C9A",
"l.	c #B297C4",
"m.	c #866F95",
"n.	c #AC9AB8",
"o.	c #9A8A9B",
"p.	c #AAA4AC",
"q.	c #ACABAB",
"r.	c #7F7F7F",
"s.	c #959595",
"t.	c #5D5D5D",
"u.	c #C6C6C6",
"v.	c #888888",
"w.	c #D8D8D8",
"x.	c #8E8E8E",
"y.	c #979598",
"z.	c #908D92",
"A.	c #8E779D",
"B.	c #93829F",
"C.	c #A992B9",
"D.	c #B0A5B8",
"E.	c #8D838E",
"F.	c #A37782",
"G.	c #AA848E",
"H.	c #9D90A6",
"I.	c #A49BAA",
"J.	c #686669",
"K.	c #E2E2E2",
"L.	c #CBCBCB",
"M.	c #696969",
"N.	c #A3A3A3",
"O.	c #C8C8C8",
"P.	c #838383",
"Q.	c #797979",
"R.	c #D8D7D8",
"S.	c #8A888B",
"T.	c #B5B4B6",
"U.	c #969597",
"V.	c #988AA1",
"W.	c #C2C2C2",
"X.	c #A29FA4",
"Y.	c #A197A8",
"Z.	c #ADA9AE",
"`.	c #5E5D5E",
" +	c #E8E8E8",
".+	c #8B8B8B",
"++	c #BFBFBF",
"@+	c #E9E9E9",
"#+	c #FFFFFF",
"$+	c #A4A4A4",
"%+	c #DCDCDC",
"&+	c #8F8F8F",
"*+	c #6A6A6A",
"=+	c #D4D4D4",
"-+	c #7A7A7A",
";+	c #858585",
">+	c #8D8D8D",
",+	c #C0C0C0",
"'+	c #8A8A8A",
")+	c #9E9E9E",
"!+	c #EFEFEF",
"~+	c #979797",
"{+	c #B5B5B5",
"]+	c #D9D9D9",
"^+	c #D0D0D0",
"/+	c #CECECE",
"(+	c #D5D5D5",
"_+	c #818181",
":+	c #DBDBDB",
"<+	c #868686",
"[+	c #F6F6F6",
"}+	c #606060",
"|+	c #5E5E5E",
"1+	c #767676",
"2+	c #7C7C7C",
"3+	c #505050",
"4+	c #4C4C4C",
"5+	c #626262",
"6+	c #C5C5C5",
"7+	c #C3C3C3",
"8+	c #4D4D4D",
"9+	c #999999",
"0+	c #C4C4C4",
"a+	c #D6D6D6",
"b+	c #BDBDBD",
"c+	c #B2B2B2",
"d+	c #DDDDDD",
"e+	c #EDEDED",
"f+	c #C1C1C1",
"g+	c #B0B0B0",
"h+	c #B7B7B7",
"i+	c #AAAAAA",
"j+	c #BEBEBE",
"k+	c #757575",
"l+	c #E5E5E5",
"m+	c #939393",
"n+	c #969696",
"o+	c #9C9C9C",
"p+	c #DEDEDE",
"q+	c #E7E7E7",
"                                                                                                                                ",
"                                                                                                                                ",
"                                                                                                                                ",
"                                                                                                                                ",
"                                                                                                                                ",
"                                                                                                                                ",
"                                                                                                                                ",
"                                                                                                                                ",
"                                                                                                                                ",
"                                                                                                                                ",
"                                                                                                                                ",
"                                                        . + + + + @ + + +                                                       ",
"                                                  + . + + + + @ + + + + + + + +                                                 ",
"                                              + + . . + # $ % & $ * $ % % + + + + +                                             ",
"                                            + + + % # $ $ % $ * $ % $ $ $ $ = $ + + +                                           ",
"                                        + + @ % $ # $ $ - % ; * > , % ' = % % % $ $ + + +                                       ",
"                                      + @ + % % $ * $ - - - $ # ) ! ) = ~ % { $ $ = $ @ + +                                     ",
"                                    + @ @ $ * * $ % - - - - - ] ! ! ) ) ^ / $ ( $ % % $ + + +                                   ",
"                                  + + + * $ * $ $ _ $ - - - ) ) ) ) ) : ) * < $ [ % = * $ + @ +                                 ",
"                                  + + * $ $ ) $ ] ) , $ - ) _ ) ) ) ) ) ) < < < $ } $ % $ $ + +                                 ",
"                                + + $ $ $ ) ) ) ) ! ] ] | $ ) ) , 1 ) ) < < < < < { * ) $ * $ @ +                               ",
"                              + + $ $ $ ) ) ) ) ) ! ) * 2 $ # ] $ 3 $ 4 * < < < ) ) ) ) ) $ * $ + +                             ",
"                              + + $ $ % $ ) ) ) $ ) $ % $ * * 1 $ * 5 1 % $ < ) 4 ) ) ) ) ) * $ + +                             ",
"                            + + $ $ * $ $ $ ) * ( 1 $ $ $ $ $ % $ * * ( { 5 6 ) % % ) ) ) $ $ $ $ + +                           ",
"                            + + $ $ $ $ * * 1 $ $ % $ * * $ $ $ $ $ $ $ $ * ~ 7 { { $ ) $ % $ $ $ + +                           ",
"                            + + $ $ $ $ $ $ % $ * * $ + + + + + + + + + + + $ % $ ' ' 1 $ $ $ $ $ + +                           ",
"                          + + $ $ $ $ $ $ $ $ $ + + + + + + + + + + + + + + + + + $ $ % $ * * $ $ $ + +                         ",
"                          + + $ $ $ $ $ $ $ + + + + + + + + + + + + + + + + + + + + + $ $ $ $ $ $ $ + +                         ",
"                          + + $ $ $ $ $ + + + + + + + + + + + + + + + + + + + + + + + + + $ $ $ $ $ + +                         ",
"                          + + $ $ $ $ $ + 8 + + + + + 9 9 + 8 8 + 8 8 + 9 + + + + + + 8 + $ $ $ $ $ + +                         ",
"                          + + $ $ $ $ $ + 8 + + 9 9 9 9 9 + 8 8 + 8 8 + 9 9 9 9 9 + + 8 + $ $ $ $ $ + +                         ",
"                          + + $ $ $ $ $ + + + + + + + + 9 + 8 8 + 8 8 + 9 + + + + + + + + $ $ $ $ $ + +                         ",
"                          + + $ $ $ $ $ $ + + + + + + + + + + + + + + + + + + + + + @ $ $ $ $ $ $ $ + +                         ",
"                          + + $ $ $ $ $ $ $ + + + + + + + + + + + + + + + + + + @ + + $ $ $ $ $ $ $ + +                         ",
"                          + + $ $ $ $ $ $ $ $ + 0 + @ + + + + + + + + + + a + @ @ + * $ $ % $ $ $ $ b c                         ",
"                            + + $ $ $ $ $ $ = $ % $ $ + + + + 0 @ + + a + + $ $ * $ $ $ $ $ $ $ $ d e                           ",
"                            + + $ $ $ $ $ = = % [ $ * = $ f % $ $ $ g g $ 5 $ * g $ ) $ * $ % h i e j                           ",
"                            b b k $ $ $ $ $ { $ * $ $ % = g % { * $ = ^ $ $ $ $ $ ) ) ) $ * l m n o p   q r                     ",
"                              b b k $ $ $ { $ * < $ : % ~ 5 ( $ % $ 5 $ $ < $ 5 ) 4 ) ) ) s t u v w   q r x r                   ",
"                              y z A k k $ $ $ < < < ) : { ' $ < ) { * = < < < % 5 ) ) B C D E F G H I J K L L L                 ",
"                      L q       z M N k k $ < < < < < : ) ! < < < , { < < < < < 5 h O P Q R S T U V W x X L x                   ",
"                    q L Y L Z L `  ...k A = $ < < < ) ) ) < < < < < +.* < < < $ @.#.$.%.x &.*.r r v W Y =.*.                    ",
"                  q r W W v -.G K ;.w  .>.,.* $ < $ 4 ) '.) < < < : $ $ $ < $ ).!.~.{.].^./.r r r W v W W (.                    ",
"                r r W W v W W r r x _.:.o <.[.}.|.* 1.{ ) ) ) 2.) = % 5 5 3.4.5.6.7.8.9.0.r r r r r v W a.                      ",
"                  ` - W W W r r r e F b.y c.d.e.f.g.h.}.i.j.5 k.l.$ 2 m.n.o.p.q.:.:.r.x s.q r r r W W t.                        ",
"                  r L t.W r r r r r u.v.w.x.7.y.z.A.B.C.C.D.i E.Q F.G.H.I.J.K.` L.M.F N.W O.t.r W Y d K O.                      ",
"                    (.(.P.W r r r W - Q.x.p z ;.` R.P.S.T.U.V.W.X.Y.Z.`. +.+++@+z r #+v W J v $+W %+&+-.                        ",
"                      L W W W r W Y W - *+w s.=+-+;+s.V >+,+'+- 9.;+T )+;+W !+e r r r W v W W Y d ~+I                           ",
"                        {+v v V W W W W s.$+]+r ^+/+W (+_+o v - - :+<+o W W W r r r r r v W W W W G                             ",
"                          a.W [+W v v r r - r r r W v W =+Q.- - - - o W W W Y W r r r  +W W W W                                 ",
"                          Y }+#+-.W r ` r r r r r r v W W r.>+- - r  +#+W v W _.r r |+1+}+s.W     L                             ",
"                              2+3+4+r r r - r r r W W W [+/+r - r 5+- #+#+W :...6+7+@+  c.X 8+(.9+                              ",
"                                  0+=+o t.a+Q.r r [+W b+;.c+F V d+o - t.v.U e+r f+g+h+  u.                                      ",
"                                          i+$+j+v.;+k+r #+/+++b.;+<+w.=+l+m+:.M.    ^+=+                                        ",
"                                                #+r F a+v.Q.n+9+9.].o+8.x - p+q+- N.                                            ",
"                                                                v.- v.-                                                         ",
"                                                                                                                                ",
"                                                                                                                                ",
"                                                                                                                                ",
"                                                                                                                                ",
"                                                                                                                                ",
"                                                                                                                                ",
"                                                                                                                                ",
"                                                                                                                                "};
