/* XPM */
static char * enemy_left_5_xpm[] = {
"64 64 343 2",
"  	c None",
". 	c #111111",
"+ 	c #000000",
"@ 	c #18151C",
"# 	c #8B7F93",
"$ 	c #9471AB",
"% 	c #9877B0",
"& 	c #987DAE",
"* 	c #AD8AC6",
"= 	c #9F73A6",
"- 	c #190203",
"; 	c #83141A",
"> 	c #927083",
", 	c #878787",
"' 	c #94889D",
") 	c #9578AA",
"! 	c #BB99D4",
"~ 	c #B693D0",
"{ 	c #BC98D4",
"] 	c #BB98D5",
"^ 	c #B386BB",
"/ 	c #BC81B2",
"( 	c #BD131B",
"_ 	c #AF354D",
": 	c #8E7778",
"< 	c #998DA2",
"[ 	c #BF85B6",
"} 	c #AF8CC8",
"| 	c #AE8DC8",
"1 	c #BA4158",
"2 	c #C186B8",
"3 	c #BD82B3",
"4 	c #BD435C",
"5 	c #B495C9",
"6 	c #C086B7",
"7 	c #996497",
"8 	c #BC86BB",
"9 	c #92899A",
"0 	c #B18FCA",
"a 	c #BD121A",
"b 	c #9173A5",
"c 	c #9F81B9",
"d 	c #BB95D0",
"e 	c #BB9AD5",
"f 	c #AF90CA",
"g 	c #9C7DB6",
"h 	c #BD3C53",
"i 	c #BE334A",
"j 	c #B1374F",
"k 	c #9D699C",
"l 	c #B08DC8",
"m 	c #BC95CA",
"n 	c #BB9CD6",
"o 	c #B93F58",
"p 	c #BC91CA",
"q 	c #BE8CBF",
"r 	c #BA9CD6",
"s 	c #A689C1",
"t 	c #B898D4",
"u 	c #BB9BD7",
"v 	c #B99CD6",
"w 	c #A88CC5",
"x 	c #B794D1",
"y 	c #B796D3",
"z 	c #2C2734",
"A 	c #BE5A73",
"B 	c #B792D1",
"C 	c #BA95D4",
"D 	c #BA96D4",
"E 	c #A485BE",
"F 	c #BA99D5",
"G 	c #BA9CD5",
"H 	c #B795D2",
"I 	c #9C7CB5",
"J 	c #A484BB",
"K 	c #4E445B",
"L 	c #A989C1",
"M 	c #BA9CD4",
"N 	c #BA9AD4",
"O 	c #B895D2",
"P 	c #BB87BB",
"Q 	c #B794D0",
"R 	c #B091CC",
"S 	c #BA9AD5",
"T 	c #B897D2",
"U 	c #B83E57",
"V 	c #B32F47",
"W 	c #BB96D5",
"X 	c #B995D4",
"Y 	c #990030",
"Z 	c #E89296",
"` 	c #B07CB1",
" .	c #BC415B",
"..	c #BB97D5",
"+.	c #BA97D5",
"@.	c #BB99D6",
"#.	c #B797D2",
"$.	c #301C23",
"%.	c #BC97D6",
"&.	c #A285BD",
"*.	c #2C2C2C",
"=.	c #4E4E4E",
"-.	c #BB97D4",
";.	c #BB97D3",
">.	c #B895D1",
",.	c #5A5A5A",
"'.	c #6A6A6A",
").	c #A071A4",
"!.	c #C7637D",
"~.	c #B08DCA",
"{.	c #B693CF",
"].	c #988AA0",
"^.	c #676767",
"/.	c #9D9D9D",
"(.	c #9C82AE",
"_.	c #B28DC6",
":.	c #BF88BA",
"<.	c #8D789A",
"[.	c #9B96A0",
"}.	c #84788C",
"|.	c #8D8D8D",
"1.	c #929292",
"2.	c #A8A8A8",
"3.	c #ADADAD",
"4.	c #D64D56",
"5.	c #C96F8D",
"6.	c #B890CB",
"7.	c #BE90C5",
"8.	c #A297AB",
"9.	c #786F7E",
"0.	c #7E7C7F",
"a.	c #848484",
"b.	c #AFAFAF",
"c.	c #B4B4B4",
"d.	c #B3B3B3",
"e.	c #9B9B9B",
"f.	c #A2A2A2",
"g.	c #A48FB1",
"h.	c #CC6882",
"i.	c #BC85B7",
"j.	c #B18BC4",
"k.	c #AE92C0",
"l.	c #958F98",
"m.	c #7A7480",
"n.	c #5F5A62",
"o.	c #858585",
"p.	c #3D2C48",
"q.	c #939393",
"r.	c #7D7D7D",
"s.	c #757178",
"t.	c #8A8A8A",
"u.	c #ACACAC",
"v.	c #987AAC",
"w.	c #8F75A1",
"x.	c #9F8DAC",
"y.	c #98929D",
"z.	c #837F85",
"A.	c #7E7E7E",
"B.	c #3F2E4A",
"C.	c #919191",
"D.	c #909090",
"E.	c #686868",
"F.	c #A6A6A6",
"G.	c #ABABAB",
"H.	c #9C6C9F",
"I.	c #C088BA",
"J.	c #9B8BA6",
"K.	c #A49EA9",
"L.	c #9F9BA2",
"M.	c #7A797B",
"N.	c #717171",
"O.	c #41304C",
"P.	c #545454",
"Q.	c #2C123D",
"R.	c #483753",
"S.	c #726E75",
"T.	c #8C8C8C",
"U.	c #464646",
"V.	c #E0E0E0",
"W.	c #6E6E6E",
"X.	c #A8A4AB",
"Y.	c #AEAEAE",
"Z.	c #BC7083",
"`.	c #A089AF",
" +	c #9C7AB5",
".+	c #BF8EC3",
"++	c #BD91C5",
"@+	c #A294A5",
"#+	c #9D989F",
"$+	c #8F8B93",
"%+	c #808080",
"&+	c #969696",
"*+	c #777777",
"=+	c #7C7C7C",
"-+	c #423E45",
";+	c #6F6F6F",
">+	c #BDBDBD",
",+	c #8C888F",
"'+	c #AA9EB1",
")+	c #B65F75",
"!+	c #AF6376",
"~+	c #C06279",
"{+	c #A789BD",
"]+	c #B18EC9",
"^+	c #A986C1",
"/+	c #A574A1",
"(+	c #BA91B7",
"_+	c #B2A6BA",
":+	c #9A94A0",
"<+	c #8E8E8E",
"[+	c #9E9E9E",
"}+	c #574662",
"|+	c #D0CCD3",
"1+	c #C6C6C6",
"2+	c #604F6B",
"3+	c #606060",
"4+	c #7E7683",
"5+	c #7F7B82",
"6+	c #5F5F5F",
"7+	c #533D61",
"8+	c #9882A8",
"9+	c #A27EA5",
"0+	c #A28DB1",
"a+	c #B07E8A",
"b+	c #9E586F",
"c+	c #A98FBC",
"d+	c #BD88B8",
"e+	c #BF95C3",
"f+	c #B39BC2",
"g+	c #846698",
"h+	c #866F95",
"i+	c #AD9EB8",
"j+	c #A192A5",
"k+	c #9B969F",
"l+	c #817D84",
"m+	c #584763",
"n+	c #837F86",
"o+	c #969299",
"p+	c #5D5D5D",
"q+	c #FFFFFF",
"r+	c #34233F",
"s+	c #A1A1A1",
"t+	c #595959",
"u+	c #B5B5B5",
"v+	c #4F4F4F",
"w+	c #949295",
"x+	c #908D92",
"y+	c #837B88",
"z+	c #8A7996",
"A+	c #8E799D",
"B+	c #A490B2",
"C+	c #5A4568",
"D+	c #9F91A7",
"E+	c #928797",
"F+	c #7B678A",
"G+	c #9B7AA3",
"H+	c #B590BC",
"I+	c #4C3958",
"J+	c #A49BAA",
"K+	c #A5A5A5",
"L+	c #9E9AA1",
"M+	c #5B4A66",
"N+	c #838383",
"O+	c #989898",
"P+	c #6D6D6D",
"Q+	c #7B7B7B",
"R+	c #4A464D",
"S+	c #C4C3C4",
"T+	c #78747B",
"U+	c #4D3B58",
"V+	c #B4B3B4",
"W+	c #9A999B",
"X+	c #9C90A4",
"Y+	c #C0C0C0",
"Z+	c #ADACAE",
"`+	c #4D3A58",
" @	c #ADA9AE",
".@	c #696969",
"+@	c #42314D",
"@@	c #443150",
"#@	c #DBDBDB",
"$@	c #747474",
"%@	c #737373",
"&@	c #999999",
"*@	c #4B3A56",
"=@	c #493854",
"-@	c #79757C",
";@	c #473652",
">@	c #97939A",
",@	c #362541",
"'@	c #5E5E5E",
")@	c #D9D9D9",
"!@	c #4A3955",
"~@	c #C3BFC6",
"{@	c #443250",
"]@	c #9F9F9F",
"^@	c #797979",
"/@	c #E8E8E8",
"(@	c #4B3858",
"_@	c #9C989F",
":@	c #7F7F7F",
"<@	c #4C3B57",
"[@	c #372642",
"}@	c #372443",
"|@	c #4B4B4B",
"1@	c #4D3C58",
"2@	c #4B3857",
"3@	c #4A3857",
"4@	c #787878",
"5@	c #99959C",
"6@	c #4A3756",
"7@	c #8F8F8F",
"8@	c #352440",
"9@	c #D6D6D6",
"0@	c #656168",
"a@	c #4E3D59",
"b@	c #554460",
"c@	c #544160",
"d@	c #B2B2B2",
"e@	c #949494",
"f@	c #43304F",
"g@	c #888888",
"h@	c #757575",
"i@	c #656565",
"j@	c #9B979E",
"k@	c #594864",
"l@	c #525252",
"m@	c #494949",
"n@	c #7A7A7A",
"o@	c #828282",
"p@	c #AAA6AD",
"q@	c #B7B7B7",
"r@	c #868686",
"s@	c #D8D8D8",
"t@	c #B5B1B8",
"u@	c #E5E5E5",
"v@	c #BABABA",
"w@	c #6B6B6B",
"x@	c #A9A9A9",
"y@	c #AAAAAA",
"z@	c #A7A7A7",
"A@	c #DEDEDE",
"B@	c #DADADA",
"                                                                                                                                ",
"                                                                                                                                ",
"                                                                                                                                ",
"                                                                                                                                ",
"                                                                                                                                ",
"                                                                                                                                ",
"                                                                                                                                ",
"                                                                                                                                ",
"                                                                                                                                ",
"                                                                                                                                ",
"                                                                                                                                ",
"                                                        . + + + + @ + + +                                                       ",
"                                                  + . + + + + @ + + + + + + + +                                                 ",
"                                              + + . . + # $ % & $ * $ % % + + + + +                                             ",
"                                            + + + % # $ $ % $ * $ % $ $ $ $ = $ + + +                                           ",
"                                        - + ; % $ > $ $ , % ' * ) ! % ~ = % % % $ $ + + +                                       ",
"                                      + ; + % % $ * $ , , , $ # { ] { = ^ % / $ $ = $ @ + +                                     ",
"                                    + ; @ $ ( * _ % : , , , , < ] ] { { [ } $ | $ % % $ + + +                                   ",
"                                  + + + * ( ( ( $ 1 $ , , , { { { { { 2 { * { $ 3 % = * $ + @ +                                 ",
"                                  + + * ( ( ( ( ( 4 ! $ , { 5 { { { { ! { { { { $ 6 $ % $ $ + +                                 ",
"                                + + $ 7 $ ( ( ( 8 ] < < 9 $ { { ! 0 { { { { { { { / * { $ * $ @ +                               ",
"                              + + $ _ $ { { a { 8 ] ! * b $ # < % c $ d * { { { { e e e e $ f g + +                             ",
"                              + + $ $ % _ h i { j { $ k $ * * l $ ~ [ l % $ { e m e e { n n f g + +                             ",
"                            + + $ $ * $ $ $ h | o o * $ $ % $ % } * * { / p q r s t u u v w x y $ z z                           ",
"                          + + $ $ * x A $ _ $ $ ( $ _ $ 7 $ % $ $ $ { { { $ | B C D t E F G H x g z z                           ",
"                          + + + + + % $ ~ $ $ ( ( ( { _ * % I $ * { { { { { C B B ] ] F G ] { ] x J K                           ",
"                          + + + + + + + $ $ ( ( ( ( ( 4 $ * * $ % $ { { { $ $ % { ] G G G ] ] { ! ] L z                         ",
"                        + + + + + + + + + 7 $ ( ( ( { { { ~ $ * { $ * { % I $ { ! M M ] ] { { N { ] O z                         ",
"                        + + + + + + + + + + $ % ( { P { $ $ $ { { ] * Q % % g R M M ] ] ] ! N S ] ! T +                         ",
"                        + + + + + + + + + + U _ V $ { $ % $ { { { ! { | $ W C B X ] ] ] { { ] { S ] J +                         ",
"                        + Y + Y + Z + + + + $ % ` *  ._ $ I $ ! { { $ $ * $ $ ......{ { ] ] F S S x + +                         ",
"                        + Y + Y + + + + + + $ $ * $ % $ ~ * % % { * % $ % $ { { { { { { { ] ] ] B F J +                         ",
"                        + + + + + + + + @ $ $ * $ $ { $ * $ | ~ l $ $ $ $ { { { { { { { { ] ] ] F +.J +                         ",
"                        + + + + + + + @ + $ $ $ $ { { { $ * * $ % { * ~ % % { ! @.{ { { { { #.g $ B J +                         ",
"                          + + + + $.@ @ * $ $ $ { { { { { * $ $ { { { * * % * %.B % { { ! &.E * X B *.=.                        ",
"                          + @ + $.+ $ * $ $ $ % $ { { { $ $ $ ! { { { ! * * * l * X -.;.>.$ B B $ ,.'.                          ",
"                            + ).).!.* ).{ * * $ $ $ { $ % % % $ { { ! % $ * $ % % * | g ~.X +.{.].^./.                          ",
"                            + *.(.$ $ $ $ $ A $ ~ * l % = _.% / * { = :.$ $ $ $ $ { { { $ * <.[.}.|.1.  2.3.                    ",
"                              *.*.(.$ $ $ A $ * 4.$ 5.% 6.p | * } l [ $ $ { $ [ { 7.{ { { 8.9.0.a.3.  b.c.d.c.                  ",
"                              e.f.g.(.(.$ $ $ 4.4.4.{ h./ ~ $ { { i.* j.{ { { % [ { { k.l.m.n.o.p.q.r.s.t.d.u.d.                ",
"                                f./.v.(.(.$ 4.4.4.4.4.h.{ ] { { { ! / { { { { { [ w.x.y.z.A.B.=.1.r.r.r.C.D.d.                  ",
"                            E.d.F.G.b.(.g.H.$ 4.4.4.{ { { { { { { { I.* { { { $ J.K.L.M.N.O.P.a.Q.r.R.A.S.T.                    ",
"                          U.V.W.X.Y.u.G.Z.`. +$ 4.$ .+{ ++{ { { { 2 $ $ $ { v.@+#+$+%+&+/.*+=+Q.Q.Q.r.R.c.c.                    ",
"                c.c.U.U.U.U.-+;+c.t.>+C.,+'+)+!+~+{+]+/ { ^+{ { { = % /+[ (+_+:+<+f.[+<+r.=+Q.Q.Q.Q.Q.}+f.                      ",
"                  F., U.U.-+|+1+2+3+3.4+5+6+7+8+9+0+a+b+c+d+[ e+f+g+b h+i+j+k+l+u.m+r.r.n+o+r.Q.Q.Q.=+a.c.                      ",
"                  c.d.p+U.q+r+s+t+u+c.v+2+%+r.w+x+y+z+A+B+C+D+E+F+G+H+I+J+K+L+M+d.=+r.r.R.r.r.r.Q.r.S.N+O+G.                    ",
"                    P+P+Q+r+U.U.Q.c.M+M+R+u+Q.N+}+S+T+U+V+W+X+Y+Z+`+ @.@>+t.+@D.r.Q.r.R.r.S.R.R.@@r.e.#@                        ",
"                      d.U.U.U.Q.Q.Q.c.M+c.Q.Q.Q.$@R.}+%@|.Q.&@*@=@-@r.Q.o.;@c.>@Q.Q.Q.r.R.r.r.r.S.q.p.,@'@                      ",
"                        u+U.Q.Q.Q.Q.Q.M+Q.Q.Q.Q.Q.R.r.)@Q.Q.Q., M+#@Q.Q.Q.c.!@Q.Q.Q.Q.Q.R.r.r.r.r.P.=.                          ",
"                          ~@T.Q.Q.Q.c.-+P.Q.Q.Q.r.r.r.Q.Q.Q.Q.Q.M+Q.Q.Q.Q.Q.{@r.Q.Q.Q.r.r.r.r.]@  ^@A.                          ",
"                        +@P.3+/@Q.T.(@U.U.U.Q.'@S.r.S.c.Q.Q.Q.d._@c.Q.Q.Q.R.r.r.r.Q.:@S.r.%+K+F.*+a.                            ",
"                            <@[@}@|@P.U.1@!@2@T.q+R.U.3.c.Q.P+3@c.c., Q.4@5@r.R.R.6@7@|.F.K+:@=+%+                              ",
"                                  =.,@8@U.9@0@%+a@b@U.r+M+c@d@e@c.*@!@f@g@;+h@r.i@j@u+k@M+e@                                    ",
"                                      l@m@|@v+n@g@a./.o@O+p@q@m+}+r@s@t@u@=@!@*+    N.P+v@                                      ",
"                                                q+W.w@;+<+^@x@y@7@e.G.z@K+, A@B@, t.G.                                          ",
"                                                                g@, g@,                                                         ",
"                                                                                                                                ",
"                                                                                                                                ",
"                                                                                                                                ",
"                                                                                                                                ",
"                                                                                                                                ",
"                                                                                                                                ",
"                                                                                                                                ",
"                                                                                                                                "};
