/* XPM */
static char * enemy_6_xpm[] = {
"64 64 223 2",
"  	c #FF00FF",
". 	c #111111",
"+ 	c #000000",
"@ 	c #18151C",
"# 	c #8B7F93",
"$ 	c #9471AB",
"% 	c #9877B0",
"& 	c #987DAE",
"* 	c #AD8AC6",
"= 	c #9C6C9F",
"- 	c #878787",
"; 	c #94889D",
"> 	c #9578AA",
", 	c #BB99D4",
"' 	c #B693D0",
") 	c #BC98D4",
"! 	c #BB98D5",
"~ 	c #B282B7",
"{ 	c #BE5A73",
"] 	c #998DA2",
"^ 	c #C7647E",
"/ 	c #AF8CC8",
"( 	c #AE8DC8",
"_ 	c #B495C9",
": 	c #CC6882",
"< 	c #D64D56",
"[ 	c #C05C75",
"} 	c #CA6680",
"| 	c #92899A",
"1 	c #B08DC8",
"2 	c #9173A5",
"3 	c #9C7CB5",
"4 	c #BF8EC3",
"5 	c #C7637D",
"6 	c #CA5E78",
"7 	c #B794D1",
"8 	c #1C0A0B",
"9 	c #301C23",
"0 	c #2C2C2C",
"a 	c #4E4E4E",
"b 	c #5A5A5A",
"c 	c #676767",
"d 	c #A376A8",
"e 	c #A071A4",
"f 	c #8F75A1",
"g 	c #9B8BA5",
"h 	c #929292",
"i 	c #9C82AE",
"j 	c #8D789A",
"k 	c #9C95A2",
"l 	c #9E92A5",
"m 	c #9A9A9A",
"n 	c #B9B9B9",
"o 	c #A8A8A8",
"p 	c #B3B3B3",
"q 	c #9F92A9",
"r 	c #9A90A1",
"s 	c #8F8C90",
"t 	c #8C8C8C",
"u 	c #ACACAC",
"v 	c #AFAFAF",
"w 	c #B4B4B4",
"x 	c #A5A5A5",
"y 	c #9F9F9F",
"z 	c #A2A2A2",
"A 	c #A48FB1",
"B 	c #AE92C0",
"C 	c #928899",
"D 	c #9F99A5",
"E 	c #919091",
"F 	c #B1B1B1",
"G 	c #6E6E6E",
"H 	c #D7D7D7",
"I 	c #B6B6B6",
"J 	c #919191",
"K 	c #BCBCBC",
"L 	c #AAAAAA",
"M 	c #9D9D9D",
"N 	c #987AAC",
"O 	c #A48FB2",
"P 	c #897A94",
"Q 	c #9885A6",
"R 	c #A1A1A1",
"S 	c #9E9E9F",
"T 	c #7D7D7D",
"U 	c #6F6F6F",
"V 	c #989898",
"W 	c #464646",
"X 	c #616161",
"Y 	c #A6A6A6",
"Z 	c #CD647C",
"` 	c #9B87AA",
" .	c #958A9E",
"..	c #9689A0",
"+.	c #878488",
"@.	c #ADADAD",
"#.	c #737373",
"$.	c #E0E0E0",
"%.	c #AEAEAE",
"&.	c #ABABAB",
"*.	c #BC7083",
"=.	c #A089AF",
"-.	c #BE8FC3",
";.	c #9C829E",
">.	c #8F8595",
",.	c #8C8A8D",
"'.	c #9D9C9D",
").	c #9B9B9B",
"!.	c #AFAEB0",
"~.	c #6A696A",
"{.	c #DEDEDE",
"].	c #A9A9A9",
"^.	c #9E9E9E",
"/.	c #A89AB0",
"(.	c #B65F75",
"_.	c #AF6376",
":.	c #C06279",
"<.	c #B18EC9",
"[.	c #CB545B",
"}.	c #BA5C72",
"|.	c #AF9DBB",
"1.	c #9D97A2",
"2.	c #ACABAC",
"3.	c #828282",
"4.	c #909090",
"5.	c #898989",
"6.	c #666666",
"7.	c #DADADA",
"8.	c #B2B2B2",
"9.	c #5F5F5F",
"0.	c #9D8FA5",
"a.	c #9F89AF",
"b.	c #A27EA5",
"c.	c #B4A0C2",
"d.	c #B07E8A",
"e.	c #A789BD",
"f.	c #C26B82",
"g.	c #C98C9A",
"h.	c #B297C4",
"i.	c #866F95",
"j.	c #AC9AB8",
"k.	c #9A8A9B",
"l.	c #AAA4AC",
"m.	c #ADACAC",
"n.	c #7F7F7F",
"o.	c #959595",
"p.	c #5D5D5D",
"q.	c #C4C4C4",
"r.	c #888888",
"s.	c #C0C0C0",
"t.	c #8E8E8E",
"u.	c #9B999C",
"v.	c #908D92",
"w.	c #8E779D",
"x.	c #93829F",
"y.	c #A992B9",
"z.	c #B0A5B8",
"A.	c #8D838E",
"B.	c #A37782",
"C.	c #AA848E",
"D.	c #9D90A6",
"E.	c #A49BAA",
"F.	c #727073",
"G.	c #E2E2E2",
"H.	c #CBCBCB",
"I.	c #696969",
"J.	c #A3A3A3",
"K.	c #C8C8C8",
"L.	c #BBBBBB",
"M.	c #6D6D6D",
"N.	c #767676",
"O.	c #838383",
"P.	c #797979",
"Q.	c #D8D7D8",
"R.	c #8A888B",
"S.	c #B5B4B6",
"T.	c #969597",
"U.	c #988AA1",
"V.	c #C2C2C2",
"W.	c #A29FA4",
"X.	c #A197A8",
"Y.	c #ADA9AE",
"Z.	c #5E5D5E",
"`.	c #BFBFBF",
" +	c #C6C6C6",
".+	c #F6F6F6",
"++	c #545454",
"@+	c #D4D4D4",
"#+	c #858585",
"$+	c #949494",
"%+	c #8D8D8D",
"&+	c #8A8A8A",
"*+	c #EFEFEF",
"=+	c #D9D9D9",
"-+	c #D0D0D0",
";+	c #CECECE",
">+	c #D5D5D5",
",+	c #818181",
"'+	c #DBDBDB",
")+	c #868686",
"!+	c #E8E8E8",
"~+	c #606060",
"{+	c #FFFFFF",
"]+	c #7C7C7C",
"^+	c #4C4C4C",
"/+	c #626262",
"(+	c #C3C3C3",
"_+	c #E9E9E9",
":+	c #4D4D4D",
"<+	c #999999",
"[+	c #D6D6D6",
"}+	c #BDBDBD",
"|+	c #DDDDDD",
"1+	c #EDEDED",
"2+	c #C1C1C1",
"3+	c #B7B7B7",
"4+	c #757575",
"5+	c #D8D8D8",
"6+	c #E5E5E5",
"7+	c #B0B0B0",
"8+	c #969696",
"9+	c #9C9C9C",
"0+	c #E1E1E1",
"                                                                                                                                ",
"                                                                                                                                ",
"                                                                                                                                ",
"                                                                                                                                ",
"                                                                                                                                ",
"                                                                                                                                ",
"                                                                                                                                ",
"                                                                                                                                ",
"                                                                                                                                ",
"                                                                                                                                ",
"                                                                                                                                ",
"                                                        . + + + + @ + + +                                                       ",
"                                                  + . + + + + @ + + + + + + + +                                                 ",
"                                              + + . . + # $ % & $ * $ % % + + + + +                                             ",
"                                            + + + % # $ $ % $ * $ % $ $ $ $ = $ + + +                                           ",
"                                        + + @ % $ # $ $ - % ; * > , % ' = % % % $ $ + + +                                       ",
"                                      + @ + % % $ * $ - - - $ # ) ! ) = ~ % { $ $ = $ @ + +                                     ",
"                                    + @ @ $ * * $ % - - - - - ] ! ! ) ) ^ / $ ( $ % % $ + + +                                   ",
"                                  + + + * $ * $ $ _ $ - - - ) ) ) ) ) : ) * < $ [ % = * $ + @ +                                 ",
"                                  + + * $ $ ) $ ] ) , $ - ) _ ) ) ) ) ) ) < < < $ } $ % $ $ + +                                 ",
"                                + + $ $ $ ) ) ) ) ! ] ] | $ ) ) , 1 ) ) < < < < < { * ) $ * $ @ +                               ",
"                              + + $ $ $ ) ) ) ) ) ! ) * 2 $ # ] $ 3 $ 4 * < < < ) ) ) ) ) $ * $ + +                             ",
"                              + + $ $ % $ ) ) ) $ ) $ % $ * * 1 $ * 5 1 % $ < ) 4 ) ) ) ) ) * $ + +                             ",
"                            + + $ $ * $ $ $ ) * ( 1 $ $ $ $ $ % $ * * ( { 5 6 ) % % ) ) ) $ $ $ $ + +                           ",
"                            + + $ $ $ $ * * 1 $ $ % $ * * $ $ $ $ $ $ $ $ * ~ 7 { { $ ) $ % $ $ $ + +                           ",
"                            + + $ $ $ $ $ $ % $ * * $ + + + + + + + + + + + $ % $ ' ' 1 $ $ $ $ $ + +                           ",
"                          + + $ $ $ $ $ $ $ $ $ + + + + + + + + + + + + + + + + + $ $ % $ * * $ $ $ + +                         ",
"                          + + $ $ $ $ $ $ $ + + + + + + + + + + + + + + + + + + + + + $ $ $ $ $ $ $ + +                         ",
"                          + + $ $ $ $ $ + + + + + + + + + + + + + + + + + + + + + + + + + $ $ $ $ $ + +                         ",
"                          + + $ $ $ $ $ + + + + + + + + + + + + + + + + + + + + + + + + + $ $ $ $ $ + +                         ",
"                          + + $ $ $ $ $ + + + + + + + + + + + + + + + + + + + + + + + + + $ $ $ $ $ + +                         ",
"                          + + $ $ $ $ $ + + + + + + + + + + + + + + + + + + + + + + + + + $ $ $ $ $ + +                         ",
"                          + + $ $ $ $ $ $ + + + + + + + + + + + + + + + + + + + + + @ $ $ $ $ $ $ $ + +                         ",
"                          + + $ $ $ $ $ $ $ + + + + + + + + + + + + + + + + + + @ + + $ $ $ $ $ $ $ + +                         ",
"                          + + $ $ $ $ $ $ $ $ + 8 + @ + + + + + + + + + + 9 + @ @ + * $ $ % $ $ $ $ 0 a                         ",
"                            + + $ $ $ $ $ $ = $ % $ $ + + + + 8 @ + + 9 + + $ $ * $ $ $ $ $ $ $ $ b c                           ",
"                            + + $ $ $ $ $ = = % [ $ * = $ d % $ $ $ e e $ 5 $ * e $ ) $ * $ % f g c h                           ",
"                            0 0 i $ $ $ $ $ { $ * $ $ % = e % { * $ = ^ $ $ $ $ $ ) ) ) $ * j k l m n   o p                     ",
"                              0 0 i $ $ $ { $ * < $ : % ~ 5 ( $ % $ 5 $ $ < $ 5 ) 4 ) ) ) q r s t u   v w x w                   ",
"                              y z A i i $ $ $ < < < ) : { ' $ < ) { * = < < < % 5 ) ) B C D E F G H I J K w p p                 ",
"                      p L       z M N i i $ < < < < < : ) ! < < < , { < < < < < 5 f O P Q R S T U V W x w w w                   ",
"                    o p X p V p Y u v i A = $ < < < ) ) ) < < < < < Z * < < < $ `  ...+.x @.#.w w t W w w w w w                 ",
"                  o w W t t $.G K %.u &.*.=.* $ < $ 4 ) -.) < < < : $ $ $ < $ ;.>.,.'.).!.~.w w w t J W w w w                   ",
"                w w W t t W w w p x {.].^./.(._.:.* <.{ ) ) ) [.) = % 5 5 }.|.1.2.3.4.5.6.w w p w p t W 7.w                     ",
"                  Y - W W w w w w V 8.V y 9.0.a.b.c.d._.e.f.5 g.h.$ 2 i.j.k.l.m.].].n.x o.o p w w w W o                         ",
"                  w p p.w w w w w p q.r.s.t.3.u.v.w.x.y.y.z.g A.Q B.C.D.E.F.G.Y H.I.F J.W K.p.w w w w K L.                      ",
"                    M.N.O.w w w w W J.P.t.n z %.Y Q.O.R.S.T.U.V.W.X.Y.Z.G.J `. +z w .+t W J t w w w w w                         ",
"                      p W W w w ++J W - w u o @+3.#+o.$+%+s.&+- 5.#+T ^.#+t *+c w w w W t W ++++w w w                           ",
"                        w x ].$+W W W w w w =+p -+;+W >+,+m t - - '+)+m t W W w w p w w t t W W W w                             ",
"                          7.++.+t x w w w w w p w W t W @+P.- - - - m W W W w w w w p !+W W W t                                 ",
"                          ++~+{+$.++w w w w w w w w t W W n.%+- - w !+{+W w w w w w o.N.~+o.W     p                             ",
"                              ]+4.^+w w w - w w w W W W .+;+w - w /+- {+.+W w w w (+_+  9.X :+M.<+                              ",
"                                  q.`.L ).[+P.w w .+W }+%.8.F $+|+m - o.r.U 1+w 2+F 3+   +                                      ",
"                                          L %.3+r.#+4+w {+;+`.V #+)+5+@+6+o 7+^.    -+@+                                        ",
"                                                {+w F [+r.P.8+<+5.).9+4.x - {.0+- @.`.                                          ",
"                                                                r.- r.-                                                         ",
"                                                                                                                                ",
"                                                                                                                                ",
"                                                                                                                                ",
"                                                                                                                                ",
"                                                                                                                                ",
"                                                                                                                                ",
"                                                                                                                                ",
"                                                                                                                                "};
