/* XPM */
static char * enemy_left_1_xpm[] = {
"64 64 306 2",
"  	c #FF00FF",
". 	c #000000",
"+ 	c #18151C",
"@ 	c #111111",
"# 	c #9877B0",
"$ 	c #9471AB",
"% 	c #AD8AC6",
"& 	c #987DAE",
"* 	c #8B7F93",
"= 	c #9F73A6",
"- 	c #B693D0",
"; 	c #BB99D4",
"> 	c #9578AA",
", 	c #94889D",
"' 	c #878787",
") 	c #927083",
"! 	c #83141A",
"~ 	c #190203",
"{ 	c #BC81B2",
"] 	c #B386BB",
"^ 	c #BC98D4",
"/ 	c #BB98D5",
"( 	c #AE8DC8",
"_ 	c #AF8CC8",
": 	c #BF85B6",
"< 	c #998DA2",
"[ 	c #8E7778",
"} 	c #AF354D",
"| 	c #BD131B",
"1 	c #BD82B3",
"2 	c #C186B8",
"3 	c #BA4158",
"4 	c #C086B7",
"5 	c #B495C9",
"6 	c #BD435C",
"7 	c #B18FCA",
"8 	c #92899A",
"9 	c #BC86BB",
"0 	c #996497",
"a 	c #9C7DB6",
"b 	c #AF90CA",
"c 	c #BB9AD5",
"d 	c #BB95D0",
"e 	c #9F81B9",
"f 	c #9173A5",
"g 	c #BD121A",
"h 	c #BB9CD6",
"i 	c #BC95CA",
"j 	c #B08DC8",
"k 	c #9D699C",
"l 	c #B1374F",
"m 	c #BE334A",
"n 	c #BD3C53",
"o 	c #2C2734",
"p 	c #B796D3",
"q 	c #B794D1",
"r 	c #A88CC5",
"s 	c #B99CD6",
"t 	c #BB9BD7",
"u 	c #B898D4",
"v 	c #A689C1",
"w 	c #BA9CD6",
"x 	c #BE8CBF",
"y 	c #BC91CA",
"z 	c #B93F58",
"A 	c #B795D2",
"B 	c #BA9CD5",
"C 	c #BA99D5",
"D 	c #A485BE",
"E 	c #BA96D4",
"F 	c #BA95D4",
"G 	c #B792D1",
"H 	c #BE5A73",
"I 	c #4E445B",
"J 	c #A484BB",
"K 	c #9C7CB5",
"L 	c #A989C1",
"M 	c #B895D2",
"N 	c #BA9AD4",
"O 	c #BA9CD4",
"P 	c #E89296",
"Q 	c #990030",
"R 	c #B897D2",
"S 	c #BA9AD5",
"T 	c #B091CC",
"U 	c #B794D0",
"V 	c #BB87BB",
"W 	c #7B0D11",
"X 	c #B995D4",
"Y 	c #BB96D5",
"Z 	c #B32F47",
"` 	c #B83E57",
" .	c #BB97D5",
"..	c #BC415B",
"+.	c #B07CB1",
"@.	c #BA97D5",
"#.	c #B797D2",
"$.	c #BB99D6",
"%.	c #4E4E4E",
"&.	c #2C2C2C",
"*.	c #A285BD",
"=.	c #BC97D6",
"-.	c #301C23",
";.	c #676767",
">.	c #5A5A5A",
",.	c #B895D1",
"'.	c #BB97D3",
").	c #BB97D4",
"!.	c #9D9D9D",
"~.	c #9B8BA5",
"{.	c #B693CF",
"].	c #B08DCA",
"^.	c #A071A4",
"/.	c #C7637D",
"(.	c #B4B4B4",
"_.	c #A8A8A8",
":.	c #B9B9B9",
"<.	c #9A9A9A",
"[.	c #AA9DB3",
"}.	c #9F99A5",
"|.	c #8D789A",
"1.	c #BF88BA",
"2.	c #B28DC6",
"3.	c #9C82AE",
"4.	c #B3B3B3",
"5.	c #ACACAC",
"6.	c #A1A1A1",
"7.	c #99969A",
"8.	c #968F9A",
"9.	c #A297AB",
"0.	c #BE90C5",
"a.	c #B890CB",
"b.	c #C96F8D",
"c.	c #D64D56",
"d.	c #BCBCBC",
"e.	c #919191",
"f.	c #D7D7D7",
"g.	c #B5B5B5",
"h.	c #9B9A9B",
"i.	c #A5A0A9",
"j.	c #958F98",
"k.	c #AE92C0",
"l.	c #B18BC4",
"m.	c #BC85B7",
"n.	c #CC6882",
"o.	c #A48FB1",
"p.	c #A2A2A2",
"q.	c #9B9B9B",
"r.	c #A3A3A3",
"s.	c #DBDBDB",
"t.	c #6D6D6D",
"u.	c #AEAEAE",
"v.	c #9A91A1",
"w.	c #8E8695",
"x.	c #A48FB2",
"y.	c #8F75A1",
"z.	c #987AAC",
"A.	c #C4C4C4",
"B.	c #B8B8B8",
"C.	c #CFCFCF",
"D.	c #BDBDBD",
"E.	c #C3C3C3",
"F.	c #B1B1B1",
"G.	c #979598",
"H.	c #A198A8",
"I.	c #958A9E",
"J.	c #9B87AA",
"K.	c #C088BA",
"L.	c #9C6C9F",
"M.	c #ABABAB",
"N.	c #A6A6A6",
"O.	c #686868",
"P.	c #B2B2B2",
"Q.	c #C5C5C5",
"R.	c #A9A9A9",
"S.	c #FFFFFF",
"T.	c #464646",
"U.	c #A9A8AA",
"V.	c #B0AFB0",
"W.	c #A2A1A3",
"X.	c #8F8595",
"Y.	c #9F86A5",
"Z.	c #BD91C5",
"`.	c #BF8EC3",
" +	c #A089AF",
".+	c #BC7083",
"++	c #6E6E6E",
"@+	c #E0E0E0",
"#+	c #DADADA",
"$+	c #9E9E9E",
"%+	c #B2B1B2",
"&+	c #A09BA5",
"*+	c #AF9DBB",
"=+	c #BB86B7",
"-+	c #B18EC9",
";+	c #C06279",
">+	c #AF6376",
",+	c #B65F75",
"'+	c #A89AB0",
")+	c #D0D0D0",
"!+	c #8A8A8A",
"~+	c #646464",
"{+	c #BABABA",
"]+	c #B5A4C2",
"^+	c #B7ADBF",
"/+	c #ADA8AF",
"(+	c #9E8DA3",
"_+	c #AC9AB8",
":+	c #866F95",
"<+	c #B39BC2",
"[+	c #BF95C3",
"}+	c #BD88B8",
"|+	c #A789BD",
"1+	c #B07E8A",
"2+	c #B4A0C2",
"3+	c #A27EA5",
"4+	c #9D8FA5",
"5+	c #5F5F5F",
"6+	c #8B8B8B",
"7+	c #989898",
"8+	c #ADADAD",
"9+	c #606060",
"0+	c #C6C6C6",
"a+	c #E8E8E8",
"b+	c #C8C8C8",
"c+	c #D4D4D4",
"d+	c #727073",
"e+	c #A49BAA",
"f+	c #9D90A6",
"g+	c #B590BC",
"h+	c #B28CB8",
"i+	c #9885A6",
"j+	c #928797",
"k+	c #9F91A7",
"l+	c #B0A5B8",
"m+	c #A992B9",
"n+	c #9D89AB",
"o+	c #93829F",
"p+	c #8E779D",
"q+	c #908D92",
"r+	c #757575",
"s+	c #808080",
"t+	c #D8D8D8",
"u+	c #4F4F4F",
"v+	c #737373",
"w+	c #595959",
"x+	c #5D5D5D",
"y+	c #DCDCDC",
"z+	c #C7C7C7",
"A+	c #696969",
"B+	c #ADA9AE",
"C+	c #A197A8",
"D+	c #ADACAE",
"E+	c #C2C2C2",
"F+	c #9C90A4",
"G+	c #9A999B",
"H+	c #B5B4B6",
"I+	c #8A888B",
"J+	c #7B7B7B",
"K+	c #C6C5C6",
"L+	c #8F8F8F",
"M+	c #797979",
"N+	c #787878",
"O+	c #888888",
"P+	c #979797",
"Q+	c #656565",
"R+	c #BBBBBB",
"S+	c #8C8C8C",
"T+	c #858585",
"U+	c #7D7D7D",
"V+	c #898989",
"W+	c #999999",
"X+	c #C0C0C0",
"Y+	c #8D8D8D",
"Z+	c #626262",
"`+	c #959595",
" @	c #747474",
".@	c #525252",
"+@	c #545454",
"@@	c #AAAAAA",
"#@	c #818181",
"$@	c #D9D9D9",
"%@	c #B0B0B0",
"&@	c #7A7A7A",
"*@	c #4A4A4A",
"=@	c #565656",
"-@	c #AFAFAF",
";@	c #A7A7A7",
">@	c #CECECE",
",@	c #7F7F7F",
"'@	c #5E5E5E",
")@	c #939393",
"!@	c #969696",
"~@	c #4B4B4B",
"{@	c #505050",
"]@	c #B7B7B7",
"^@	c #6F6F6F",
"/@	c #949494",
"(@	c #D6D6D6",
"_@	c #494949",
":@	c #E5E5E5",
"<@	c #868686",
"[@	c #E7E7E7",
"}@	c #DEDEDE",
"|@	c #A5A5A5",
"1@	c #6B6B6B",
"                                                                                                                                ",
"                                                                                                                                ",
"                                                                                                                                ",
"                                                                                                                                ",
"                                                                                                                                ",
"                                                                                                                                ",
"                                                                                                                                ",
"                                                                                                                                ",
"                                                                                                                                ",
"                                                                                                                                ",
"                                                                                                                                ",
"                                                      . . . + . . . . @                                                         ",
"                                                . . . . . . . . + . . . . @ .                                                   ",
"                                            . . . . . # # $ % $ & # $ * . @ @ . .                                               ",
"                                          . . . $ = $ $ $ $ # $ % $ # $ $ * # . . .                                             ",
"                                      . . . $ $ # # # = - # ; > % , # ' $ $ ) $ # ! . ~                                         ",
"                                    . . + $ = $ $ { # ] = ^ / ^ * $ ' ' ' $ % $ # # . ! .                                       ",
"                                  . . . $ # # $ ( $ _ : ^ ^ / / < ' ' ' ' [ # } % | $ + ! .                                     ",
"                                . + . $ % = # 1 $ ^ % ^ 2 ^ ^ ^ ^ ^ ' ' ' $ 3 $ | | | % . . .                                   ",
"                                . . $ $ # $ 4 $ ^ ^ ^ ^ ; ^ ^ ^ ^ 5 ^ ' $ ; 6 | | | | | % . .                                   ",
"                              . + $ % $ ^ % { ^ ^ ^ ^ ^ ^ ^ 7 ; ^ ^ $ 8 < < / 9 | | | $ 0 $ . .                                 ",
"                            . . a b $ c c c c ^ ^ ^ ^ % d $ e # < * $ f % ; / 9 ^ g ^ ^ $ } $ . .                               ",
"                            . . a b h h ^ c c i c ^ $ # j : - $ j % % $ k $ ^ l ^ m n } # $ $ . .                               ",
"                          o o $ p q r s t t u v w x y { ^ % % _ # $ # $ $ % z z ( n $ $ $ % $ $ . .                             ",
"                          o o a q A B C D u E F G ( $ ^ ^ ^ $ $ $ # $ 0 $ } $ | $ $ } $ H q % $ $ . .                           ",
"                          I J q / ^ / B C / / G G F ^ ^ ^ ^ ^ % $ K # % } ^ | | | $ $ - $ # . . . . .                           ",
"                        o L / ; ^ / / B B B / ^ # $ $ ^ ^ ^ $ # $ % % $ 6 | | | | | $ $ . . . . . . .                           ",
"                        o M / ^ N ^ ^ / / O O ; ^ $ K # ^ % $ ^ % $ - ^ ^ ^ | | | $ 0 . . . P . Q Q . .                         ",
"                        . R ; / S N ; / / / O O T a # # U % / ^ ^ $ $ $ ^ V ^ | # $ . W . P P . Q . . .                         ",
"                        . J / S ^ / ^ ^ / / / X G F Y $ ( ^ ; ^ ^ ^ $ # $ ^ $ Z } ` . . P P P . Q . . .                         ",
"                        . . q S S C / / ^ ^  . . .$ $ % $ $ ^ ^ ; $ K $ } ..% +.# $ . . P P P . Q . Q .                         ",
"                        . J C G / / / ^ ^ ^ ^ ^ ^ ^ $ # $ # % ^ # # % - $ # $ % $ $ . . . P P . Q . Q .                         ",
"                        . J @.C / / / ^ ^ ^ ^ ^ ^ ^ ^ $ $ $ $ j - ( $ % $ ^ $ $ % $ $ + . . P . Q Q . .                         ",
"                        . J G $ a #.^ ^ ^ ^ ^ $.; ^ # # - % ^ # $ % % $ ^ ^ ^ $ $ $ $ . + . . . Q Q . .                         ",
"                        %.&.G X % D *.; ^ ^ # G =.% # % % ^ ^ ^ $ $ % ^ ^ ^ ^ ^ $ $ $ % + + -.. . . .                           ",
"                          ;.>.$ G G $ ,.'.).X % j % % % ; ^ ^ ^ ; $ $ $ ^ ^ ^ $ # $ $ $ % $ . -.. + .                           ",
"                          !.;.~.{.@.X ].a ( % # # $ % $ # ; ^ ^ $ # # # $ ^ $ $ $ % % ^ ^.% /.^.^..                             ",
"                    (._.  :.<.[.}.|.% $ ^ ^ ^ $ $ $ $ $ 1.= ^ % { # 2.= # j % - $ H $ $ $ $ $ 3.&..                             ",
"                  (.4.(._.  5.6.7.8.9.^ ^ ^ 0.^ : $ ^ $ $ : j _ % ( y a.# b.$ c.% $ H $ $ $ 3.&.&.                              ",
"                4.4.4.d.e.:.f.g.4.h.i.j.k.^ ^ : # ^ ^ ^ l.% m.^ ^ $ - { n.^ c.c.c.$ $ $ 3.3.o.p.q.                              ",
"                  4.4.e.4.r.e.:.s.t.u.v.w.x.y.: ^ ^ ^ ^ ^ { ; ^ ^ ^ / ^ n.c.c.c.c.c.$ 3.3.z.!.p.                                ",
"                    A.B.C.4.D.4.(.E.F.t.G.H.I.J.$ ^ ^ ^ % K.^ ^ ^ ^ ^ ^ ^ ^ c.c.c.$ L.o.3.u.M.N.4.O.                            ",
"                    P.Q.R.N.S.t.4.T.U.4.t.V.W.X.Y.$ ^ $ $ $ 2 ^ ^ ^ ^ Z.^ `.$ c.$ %  +.+M.5.u.d.++@+T.                          ",
"                      #+(.(.t.(.T.T.T.M.u.P.$+%+&+*+=+: : # = ^ ^ ^ ^ ^ { -+% ;+>+,+'+<.e.)+!+(.~+T.T.T.T.T.(.(.                ",
"                      (.(.(.t.T.T.T.T.T.P.{+4.]+^+/+(+_+:+f $ <+[+: }+|+>+1+2+3+3.4+5+6+7+8+9+s.0+a+T.T.T.' N.                  ",
"                      b+(.(.(.4.T.T.T.(.N.F.P.4.F.c+d+e+f+g+h+i+j+k+l+m+n+o+p+q+G.r+s+t+u+v+g.w+s+T.S.T.x+4.(.                  ",
"                        @+(.y+z+4.T.(.4.4.t.(.p.(.(.6+a+A+B+C+D+E+F+G+H+I+J+K+N.L+p.:.u+M+N+T.O+T.T.T.J+t.t.                    ",
"                          g.P.N.P+Q+t.t.4.4.(.(.;.R+S+T+$+U+T+V+' W+X+Y+Z+`+U+ @4.6+.@+@T.T.T.T.T.T.T.T.4.                      ",
"                            t.t.' e.g.4.4.(.(.(.(.T.T.+@<.r.s.(.' S+@@#@$@T.O+%@&@*@O.T.T.T.T.T.T.T.T.g.                        ",
"                                4.' 4.4.4.(.(.(.(.(.T.T.S+<.(.(.N.' w+c+T.T.T.O+u+=@T.T.T.T.T.T.S.T.#+                          ",
"                            4.    -@`+5.g.(.(.(.(.@@;@T.>@(.(.(.(.t.,@T.T.T.T.T.'@T.T.T.T.T.T.d.a+9++@                          ",
"                              W+4.%@-@)@  :.(.(.P.R.N.>@S.' (.(.(.t.T.T.T.T.T.S.S+!@T.T.T.T.~@{@%.O+                            ",
"                                    D.(.g.]@(.(.4.b+^@O+x+Y+<.(./@F.P.T.T.T.S.N.' ++(@T._@~@%.                                  ",
"                                      {+(.D.    A+R.)@:@c+t+<@N.@@]@D.S.T.r+T+O+&@u+~@_@.@                                      ",
"                                            r.' [@}@' |@;@M.q.L+W+!@M+O+^@1@++S.                                                ",
"                                                        ' O+' O+                                                                ",
"                                                                                                                                ",
"                                                                                                                                ",
"                                                                                                                                ",
"                                                                                                                                ",
"                                                                                                                                ",
"                                                                                                                                ",
"                                                                                                                                ",
"                                                                                                                                "};
