/* XPM */
static char * enemy_back_5_xpm[] = {
"64 64 405 2",
"  	c None",
". 	c #111111",
"+ 	c #000000",
"@ 	c #18151C",
"# 	c #8B7F93",
"$ 	c #9471AB",
"% 	c #9877B0",
"& 	c #987DAE",
"* 	c #AD8AC6",
"= 	c #9F73A6",
"- 	c #2D161E",
"; 	c #2C2734",
"> 	c #8F3647",
", 	c #AF8CC8",
"' 	c #927083",
") 	c #878787",
"! 	c #94889D",
"~ 	c #9578AA",
"{ 	c #BB99D4",
"] 	c #B693D0",
"^ 	c #95435A",
"/ 	c #816993",
"( 	c #9F81BA",
"_ 	c #BC98D4",
": 	c #BB98D5",
"< 	c #B386BB",
"[ 	c #BC81B2",
"} 	c #9981B0",
"| 	c #BC86BE",
"1 	c #AF354D",
"2 	c #B191CC",
"3 	c #8E7778",
"4 	c #8D8A91",
"5 	c #998DA2",
"6 	c #BF85B6",
"7 	c #AE8DC8",
"8 	c #BA98D6",
"9 	c #BC2533",
"0 	c #BC97D6",
"a 	c #BB9AD5",
"b 	c #BA83B4",
"c 	c #C186B8",
"d 	c #BD82B3",
"e 	c #BA95D4",
"f 	c #BB89C1",
"g 	c #BA9AD4",
"h 	c #BB98D6",
"i 	c #BA9AD6",
"j 	c #B495C9",
"k 	c #C086B7",
"l 	c #B790CE",
"m 	c #BA9AD5",
"n 	c #BA9BD4",
"o 	c #BB97D6",
"p 	c #BB99D6",
"q 	c #B197C8",
"r 	c #A092AF",
"s 	c #92899A",
"t 	c #B18FCA",
"u 	c #BA99D5",
"v 	c #BB97D5",
"w 	c #BA9BD5",
"x 	c #AF90CA",
"y 	c #9173A5",
"z 	c #99679F",
"A 	c #9F81B9",
"B 	c #BB95D0",
"C 	c #9C7DB6",
"D 	c #B996D4",
"E 	c #9D5B8D",
"F 	c #A485BE",
"G 	c #AB78B2",
"H 	c #B08DC8",
"I 	c #BC95CA",
"J 	c #BB9CD6",
"K 	c #AC8DC5",
"L 	c #B884BE",
"M 	c #B47FBC",
"N 	c #9F70A8",
"O 	c #95629A",
"P 	c #A13167",
"Q 	c #BC91CA",
"R 	c #BE8CBF",
"S 	c #BA9CD6",
"T 	c #A689C1",
"U 	c #B898D4",
"V 	c #BB9BD7",
"W 	c #B597D0",
"X 	c #A88CC5",
"Y 	c #B794D1",
"Z 	c #B796D3",
"` 	c #BE5A73",
" .	c #B693D1",
"..	c #BA8AC4",
"+.	c #B785BF",
"@.	c #B572AB",
"#.	c #A5356B",
"$.	c #996497",
"%.	c #A081BA",
"&.	c #992458",
"*.	c #B792D1",
"=.	c #BA96D4",
"-.	c #A283BB",
";.	c #B695CF",
">.	c #BA9CD5",
",.	c #A17EB8",
"'.	c #3A3143",
").	c #BB96D5",
"!.	c #B795D2",
"~.	c #B784BF",
"{.	c #A42F63",
"].	c #A4295A",
"^.	c #A273AA",
"/.	c #990030",
"(.	c #A5366B",
"_.	c #A281B9",
":.	c #A484BB",
"<.	c #4E445B",
"[.	c #AF8DC9",
"}.	c #BB74A3",
"|.	c #9A002F",
"1.	c #B995D4",
"2.	c #A5346B",
"3.	c #9472AA",
"4.	c #A280B9",
"5.	c #141016",
"6.	c #9D1043",
"7.	c #9C7CB5",
"8.	c #BA9CD4",
"9.	c #B694CF",
"0.	c #990031",
"a.	c #9B002E",
"b.	c #980E40",
"c.	c #B794D0",
"d.	c #B091CC",
"e.	c #A17FB7",
"f.	c #BB8BC6",
"g.	c #B98DC6",
"h.	c #B779B2",
"i.	c #9A0030",
"j.	c #B785BE",
"k.	c #992A5E",
"l.	c #B46FA9",
"m.	c #B682BE",
"n.	c #9C0F42",
"o.	c #A07FB7",
"p.	c #982256",
"q.	c #B06FA8",
"r.	c #A02A5E",
"s.	c #9C1244",
"t.	c #990E41",
"u.	c #97285C",
"v.	c #B794CE",
"w.	c #971C50",
"x.	c #9977AF",
"y.	c #972256",
"z.	c #B695CE",
"A.	c #B695D0",
"B.	c #9B0E41",
"C.	c #A17DB8",
"D.	c #A285BD",
"E.	c #B591CE",
"F.	c #2C2C2C",
"G.	c #4E4E4E",
"H.	c #9E7CB5",
"I.	c #BB97D3",
"J.	c #9976AF",
"K.	c #9E7BB4",
"L.	c #5A5A5A",
"M.	c #6A6A6A",
"N.	c #A071A4",
"O.	c #C7637D",
"P.	c #B08DCA",
"Q.	c #A17EB9",
"R.	c #B693CF",
"S.	c #967BA6",
"T.	c #846E92",
"U.	c #9D9D9D",
"V.	c #9C82AE",
"W.	c #A52D5F",
"X.	c #9F6496",
"Y.	c #B07AB2",
"Z.	c #BF88BA",
"`.	c #9D7BB4",
" +	c #8D789A",
".+	c #9B96A0",
"++	c #84788C",
"@+	c #848484",
"#+	c #898989",
"$+	c #A8A8A8",
"%+	c #ADADAD",
"&+	c #9D0E3F",
"*+	c #B892CC",
"=+	c #A297AB",
"-+	c #87808B",
";+	c #7E7C7F",
">+	c #767676",
",+	c #A0A0A0",
"'+	c #6C6C6C",
")+	c #B4B4B4",
"!+	c #B3B3B3",
"~+	c #A6A6A6",
"{+	c #9B9B9B",
"]+	c #A2A2A2",
"^+	c #A48FB1",
"/+	c #917BA1",
"(+	c #BD74A6",
"_+	c #9C1245",
":+	c #BC85B7",
"<+	c #B18BC4",
"[+	c #AE92C0",
"}+	c #9D96A1",
"|+	c #7A7480",
"1+	c #5F5A62",
"2+	c #7D7D7D",
"3+	c #4D4153",
"4+	c #626262",
"5+	c #757178",
"6+	c #8A8A8A",
"7+	c #A5A5A5",
"8+	c #ACACAC",
"9+	c #8D8D8D",
"0+	c #987AAC",
"a+	c #A379AE",
"b+	c #9273A7",
"c+	c #957BA5",
"d+	c #9F9BA3",
"e+	c #878388",
"f+	c #7E7E7E",
"g+	c #99979A",
"h+	c #5B5B5B",
"i+	c #545454",
"j+	c #464646",
"k+	c #919191",
"l+	c #505050",
"m+	c #959595",
"n+	c #9C9C9C",
"o+	c #9E9E9E",
"p+	c #946E9A",
"q+	c #AD8EC2",
"r+	c #C088BA",
"s+	c #988AA1",
"t+	c #A6A1AB",
"u+	c #98929B",
"v+	c #7B7A7C",
"w+	c #AEABB0",
"x+	c #715981",
"y+	c #535353",
"z+	c #5C5C5C",
"A+	c #5C595E",
"B+	c #8C8C8C",
"C+	c #CDCDCD",
"D+	c #6E6E6E",
"E+	c #595859",
"F+	c #AFAFAF",
"G+	c #BB89B8",
"H+	c #9581A2",
"I+	c #9174A7",
"J+	c #BE90C5",
"K+	c #BD91C5",
"L+	c #8E749F",
"M+	c #A095A2",
"N+	c #9C989E",
"O+	c #7D7C81",
"P+	c #7C7C7C",
"Q+	c #B0B0B0",
"R+	c #656565",
"S+	c #787878",
"T+	c #6D6D6D",
"U+	c #857C8A",
"V+	c #A29FA4",
"W+	c #909090",
"X+	c #696969",
"Y+	c #515151",
"Z+	c #777777",
"`+	c #888888",
" @	c #5C5B5D",
".@	c #ACA1B2",
"+@	c #AB7CA5",
"@@	c #B084AC",
"#@	c #BD88B9",
"$@	c #A98FBC",
"%@	c #A485B9",
"&@	c #AD7AA5",
"*@	c #6A5D72",
"=@	c #A574A1",
"-@	c #B184AA",
";@	c #BA91B7",
">@	c #B3A8BA",
",@	c #969199",
"'@	c #A7A7A7",
")@	c #989898",
"!@	c #838383",
"~@	c #494949",
"{@	c #4D4D4D",
"]@	c #7C7B7E",
"^@	c #5E5E5E",
"/@	c #4B4350",
"(@	c #ABA4B0",
"_@	c #997B9E",
":@	c #9784A4",
"<@	c #B798BA",
"[@	c #6C5B6C",
"}@	c #B587B1",
"|@	c #BF95C3",
"1@	c #B39BC2",
"2@	c #826B91",
"3@	c #967CA7",
"4@	c #7E6A8B",
"5@	c #A093AA",
"6@	c #A192A5",
"7@	c #616062",
"8@	c #828182",
"9@	c #B1B1B1",
"0@	c #545354",
"a@	c #6F6F6F",
"b@	c #878687",
"c@	c #959297",
"d@	c #635E67",
"e@	c #8E799D",
"f@	c #A192AC",
"g@	c #9F91A7",
"h@	c #6F6E6F",
"i@	c #756382",
"j@	c #967D9B",
"k@	c #AE92B3",
"l@	c #5A4964",
"m@	c #989799",
"n@	c #ACAAAD",
"o@	c #636264",
"p@	c #8E8E8E",
"q@	c #ABABAB",
"r@	c #616161",
"s@	c #A1A0A1",
"t@	c #504B52",
"u@	c #939294",
"v@	c #5B4B64",
"w@	c #6B6B6B",
"x@	c #626064",
"y@	c #B1B0B1",
"z@	c #828282",
"A@	c #757575",
"B@	c #C8C8C8",
"C@	c #928C96",
"D@	c #49474A",
"E@	c #8A898A",
"F@	c #7D7681",
"G@	c #8F8F8F",
"H@	c #807C83",
"I@	c #362541",
"J@	c #4F4F4F",
"K@	c #5D5D5D",
"L@	c #8B8B8B",
"M@	c #D9D9D9",
"N@	c #605766",
"O@	c #636363",
"P@	c #6F6E70",
"Q@	c #565656",
"R@	c #717072",
"S@	c #9F9F9F",
"T@	c #797979",
"U@	c #68626C",
"V@	c #737373",
"W@	c #575459",
"X@	c #868686",
"Y@	c #747375",
"Z@	c #7A7A7A",
"`@	c #686868",
" #	c #838184",
".#	c #79777B",
"+#	c #888889",
"@#	c #454545",
"##	c #FFFFFF",
"$#	c #A1A1A1",
"%#	c #B2B2B2",
"&#	c #808080",
"*#	c #8B8A8C",
"=#	c #858487",
"-#	c #807E82",
";#	c #7E7E7F",
">#	c #504F50",
",#	c #6A696A",
"'#	c #34233F",
")#	c #675B6E",
"!#	c #5B5B5C",
"~#	c #B5B5B5",
"{#	c #4D4751",
"]#	c #4E4852",
"^#	c #949494",
"/#	c #4B4B4B",
"(#	c #606060",
"_#	c #7B7B7B",
":#	c #A4A4A4",
"<#	c #AAA6AD",
"[#	c #B7B7B7",
"}#	c #585858",
"|#	c #979797",
"1#	c #DFDFDF",
"2#	c #574861",
"3#	c #8E8892",
"4#	c #717171",
"5#	c #BABABA",
"6#	c #4A4A4A",
"7#	c #707070",
"8#	c #727272",
"                                                                                                                                ",
"                                                                                                                                ",
"                                                                                                                                ",
"                                                                                                                                ",
"                                                                                                                                ",
"                                                                                                                                ",
"                                                                                                                                ",
"                                                                                                                                ",
"                                                                                                                                ",
"                                                                                                                                ",
"                                                                                                                                ",
"                                                        . + + + + @ + + +                                                       ",
"                                                  + . + + + + @ + + + + + + + +                                                 ",
"                                              @ + . . + # $ % & $ * $ % % + + + + +                                             ",
"                                            + @ + % # $ $ % $ * $ % $ $ $ $ = $ + + +                                           ",
"                                        - ; > , $ ' % $ ) % ! * ~ { % ] = % % % $ $ + + +                                       ",
"                                      + ^ / ( , $ * % ) ) ) $ # _ : _ = < % [ $ $ = $ @ + +                                     ",
"                                    + > } * | { 1 2 3 4 ) ) ) 5 : : _ _ 6 , $ 7 $ % % $ + + +                                   ",
"                                  + + ; 8 9 0 _ a b * 4 ) ) _ _ _ _ _ c _ * _ $ d % = * $ + @ +                                 ",
"                                  + + e f { g : h _ i $ ) _ j _ _ _ _ { _ _ _ _ $ k $ % $ $ + +                                 ",
"                                + + $ l % m n _ o p q r s $ _ _ { t _ _ _ _ _ _ _ [ * _ $ * $ @ +                               ",
"                              + + $ 1 * : { u g : v w x y $ # 5 z A $ B * _ _ _ _ a a a a $ x C + +                             ",
"                              + + $ $ 2 _ : m g g o D E F * G H $ ] 6 H % $ _ a I a a _ J J K C + +                             ",
"                            + + $ $ e C $ : _ m n L o M % N O % P * * L [ Q R S T U V V W X Y Z $ ; ;                           ",
"                          + + $ $ * v `  ...: { +.@.: #.$.%.&.$ $ $ _ _ _ $ 7 *.e =.U -.;.>.,.Y C '.;                           ",
"                          + + $ $ $ % * ).!._ : ~.{._ ].v &.^.$ /._ (._ L _ e *.*.: : u _.: _ : Y :.<.                          ",
"                          + $ $ $ $ $ $ *.[.}.: (.(._ |.1.2.7 /././._ (._ $ $ % _ : >._.>.: 3._ 4.: 5.;                         ",
"                        + + $ $ $ $ $ $ * $.!.f (._ |.|./.6./././././.(.% 7.$ _ { 8.8.: 9.$ $ $ _ 4.+ ;                         ",
"                        + + $ $ $ $ $ $ $ *.* 2 _ /./.0./.a.b./././.G c.% % C d.8.8.: 9.3.$ 3.$ $ e.+ +                         ",
"                        + + $ $ $ $ $ $ $ $ f.g.h./.i.|.0./.(.(./.j.L 7 $ ).e *.1.: : 9.4.$ $ $ m : + +                         ",
"                        + + $ $ $ $ $ $ $ $ * k.l.m././././.0.0.n.(.$ O * $ $ v v v 4.4.: : $ m o.Y 5.+                         ",
"                        + + $ $ $ $ $ $ $ $ $ p.q.r.s.0./.|.|./.i.* t.u.% $ _ _ _ _ v._ 4.$ $ $ *.4.+ +                         ",
"                        + + $ $ $ $ $ $ $ $ $ * u.b.{.w././././././.u.$ $ _ _ _ v._ _ _ $ $ $ $ $ x.+ +                         ",
"                        + + $ $ $ $ $ $ $ $ $ u.u.(././.y.0.i.a./._ * ] % % _ z.A._ 4.v._ 3.$ $ $ *.+ +                         ",
"                          + $ $ $ $ $ $ * $ $ $ { /./././.B.u./._ L _ * * % * 0 C.% 4._ { D.$ * E.*.F.G.                        ",
"                          + @ $ $ $ $ * $ $ % % /./././././.b.n.(._ _ { * * * H.* 1.$ I.J.3.K.*.$ L.M.                          ",
"                            + N.N.O.* N._ 7 7 O G /./././.% % O _ (.(.% $ * $ % % $ $ $ P.Q.R.R.S.T.U.                          ",
"                            + F.V.$ $ $ $ $ W.u.] * /./.X.Y.% [ * _ = Z.$ $ $ $ $ $ $ $ $ `. +.+++@+#+  $+%+                    ",
"                              F.F.V.$ $ $ [ $ * (.b.&+p.*+Q 7 * , H 6 $ $ _ $ b _ $ $ $ _ =+-+;+>+,+  '+)+!+~+                  ",
"                              {+]+^+/+V.$ $ $ _ _ _ L (+W._+u._ _ :+* <+_ _ 4.% 6 _ $ [+}+|+1+2+3+4+L.5+6+7+8+!+                ",
"                                9+U.0+V.V.$ _ _ _ _ _ c _ : _ _ _ { [ _ _ _ _ _ a+b+c+d+e+f+g+h+i+6+,+j+k+'+!+                  ",
"                            l+m+n+o+'+V.^+p+$ _ _ _ _ _ _ q+_ _ _ _ r+* _ _ _ $ s+t+u+v+w+x+y+z+A+2+j+j+j+B+                    ",
"                          j+C+D+E+F+%+o+G+H+I+0+_ $ J+q+K+_ _ _ _ c $ $ $ _ L+M+N+O+P+Q+R+S+T+U+V+j+j+j+B+j+                    ",
"                T+W+B+j+>+X+'+Y+Z+W+j+`+ @.@+@@@#@$@%@&@_ *@_ j q+= % =@-@;@>@,@@+'@)@!@@+T+%+)+j+j+j+j+j+D+                    ",
"                  ~+j+j+j+L.~@D+D+j+B+{@]@^@/@(@_@:@<@[@$@}@6 |@1@2@3@4@5@6@7@8@9@0@2+2+R+)+a@j+j+j+j+j+)+                      ",
"                  j+j+j+j+j+L.j+B+j+j+j+~@M.@+b@c@V+d@e@f@{@g@h@i@j@k@l@m@7+n@o@W+2+2+2+B+>+j+j+j+j+j+T+p@q@                    ",
"                    j+j+j+2+j+j+j+j+r@j+s@X+j+T+t@q@u@v@j+'+j+Q+w@x@y@y+%+z@j+W+2+j+2+L.2+A@z@j+j+j+R+B@                        ",
"                      j+2+j+j+j+j+j+T+W+X+j+j+j+T+r@C@{@'+{@j+L.D@E@Z+F@)+j+B+{@j+j+j+2+{@2+G@2+j+$+H@I@J@                      ",
"                    M.K@'+4+j+j+j+2+2+W+j+j+j+j+j+X+L@M@j+X+L.2+2+j+N@T+)+~+X+j+j+j+j+j+L.2+z+L.O@'@h+                          ",
"                          P@Q@j+2+>+)+~+j+j+j+j+2+2+W+)+R@2+2+2+j+j+j+%+T+)+7+z@j+j+j+2+4+2+2+S@  T@L.                          ",
"                        U@r@O@V@2+T+w@j+L.j+j+2+>+)+)+T+a@W@2+j+j+j+j+j+T+T+j+j+B+j+X@Y@Z@f+`@X+Z+@+                            ",
"                             #.#+#X+'+X+j+j+@#2+##%+)+W+)+2+>+2+j+j+j+T+)+j+i+j+j+@#w@$#%#p@f+P+&#                              ",
"                                *#4+=#-#7+z@;#>+>#,#!+'#)#!#2+2+2+j+!+7+Q+a@j+j+j+7@~#{#]#^#                                    ",
"                                      /#(#L.J@_#:#L@p@A@M.<#[#L.j+}#|#T+1#2#3#B+    4#T+5#                                      ",
"                                              6#`+D+A@a@~+A@D+7#L.S@Q+T+w@K@P+7#) 6+q@                                          ",
"                                                                &#8#T+(#                                                        ",
"                                                                                                                                ",
"                                                                                                                                ",
"                                                                                                                                ",
"                                                                                                                                ",
"                                                                                                                                ",
"                                                                                                                                ",
"                                                                                                                                ",
"                                                                                                                                "};
