/* XPM */
static char * enemy_0_xpm[] = {
"64 64 209 2",
"  	c #FF00FF",
". 	c #111111",
"+ 	c #000000",
"@ 	c #18151C",
"# 	c #8B7F93",
"$ 	c #9471AB",
"% 	c #9877B0",
"& 	c #987DAE",
"* 	c #AD8AC6",
"= 	c #9C6C9F",
"- 	c #878787",
"; 	c #94889D",
"> 	c #9578AA",
", 	c #BB99D4",
"' 	c #B693D0",
") 	c #BC98D4",
"! 	c #BB98D5",
"~ 	c #B282B7",
"{ 	c #BE5A73",
"] 	c #998DA2",
"^ 	c #C7647E",
"/ 	c #AF8CC8",
"( 	c #AE8DC8",
"_ 	c #B495C9",
": 	c #CC6882",
"< 	c #D64D56",
"[ 	c #C05C75",
"} 	c #CA6680",
"| 	c #92899A",
"1 	c #B08DC8",
"2 	c #9173A5",
"3 	c #9C7CB5",
"4 	c #BF8EC3",
"5 	c #C7637D",
"6 	c #CA5E78",
"7 	c #B794D1",
"8 	c #E89296",
"9 	c #990030",
"0 	c #1C0A0B",
"a 	c #301C23",
"b 	c #2C2C2C",
"c 	c #4E4E4E",
"d 	c #5A5A5A",
"e 	c #676767",
"f 	c #A376A8",
"g 	c #A071A4",
"h 	c #8F75A1",
"i 	c #9B8BA5",
"j 	c #9D9D9D",
"k 	c #9C82AE",
"l 	c #8D789A",
"m 	c #98909F",
"n 	c #AA9DB3",
"o 	c #9A9A9A",
"p 	c #B9B9B9",
"q 	c #A8A8A8",
"r 	c #B4B4B4",
"s 	c #9C8DA7",
"t 	c #9A90A1",
"u 	c #99969A",
"v 	c #A1A1A1",
"w 	c #ACACAC",
"x 	c #B3B3B3",
"y 	c #A7A7A7",
"z 	c #A2A2A2",
"A 	c #A48FB1",
"B 	c #AE92C0",
"C 	c #8D8195",
"D 	c #9C95A2",
"E 	c #9B9A9B",
"F 	c #AEAEAE",
"G 	c #B5B5B5",
"H 	c #D7D7D7",
"I 	c #BABABA",
"J 	c #919191",
"K 	c #BCBCBC",
"L 	c #987AAC",
"M 	c #A48FB2",
"N 	c #897A94",
"O 	c #9885A6",
"P 	c #ABABAC",
"Q 	c #E0E0E0",
"R 	c #949494",
"S 	c #868686",
"T 	c #ABABAB",
"U 	c #CD647C",
"V 	c #9B87AA",
"W 	c #958A9E",
"X 	c #9689A0",
"Y 	c #878488",
"Z 	c #969696",
"` 	c #ADADAD",
" .	c #C3C3C3",
"..	c #FFFFFF",
"+.	c #D6D6D6",
"@.	c #B8B8B8",
"#.	c #C4C4C4",
"$.	c #B6B6B6",
"%.	c #BC7083",
"&.	c #A089AF",
"*.	c #BE8FC3",
"=.	c #9C829E",
"-.	c #8F8595",
";.	c #868487",
">.	c #A9A8A9",
",.	c #9B9B9B",
"'.	c #AFAEB0",
").	c #A9A8AA",
"!.	c #A9A9A9",
"~.	c #E4E4E4",
"{.	c #B2B2B2",
"].	c #A4A4A4",
"^.	c #A89AB0",
"/.	c #B65F75",
"(.	c #AF6376",
"_.	c #C06279",
":.	c #B18EC9",
"<.	c #CB545B",
"[.	c #CB5F78",
"}.	c #AF9DBB",
"|.	c #99929F",
"1.	c #ACABAC",
"2.	c #8A8A8A",
"3.	c #898989",
"4.	c #DADADA",
"5.	c #D8D8D8",
"6.	c #D5D5D5",
"7.	c #A3A3A3",
"8.	c #989898",
"9.	c #5F5F5F",
"0.	c #9D8FA5",
"a.	c #A27EA5",
"b.	c #A992B9",
"c.	c #BF8693",
"d.	c #A789BD",
"e.	c #C26B82",
"f.	c #C98C9A",
"g.	c #B297C4",
"h.	c #8F75A0",
"i.	c #AC9AB8",
"j.	c #9A8A9B",
"k.	c #A8A1AB",
"l.	c #AAA9A9",
"m.	c #E6E6E6",
"n.	c #BDBDBD",
"o.	c #D4D4D4",
"p.	c #929292",
"q.	c #8D8D8D",
"r.	c #888888",
"s.	c #828282",
"t.	c #888689",
"u.	c #9A979D",
"v.	c #8E779D",
"w.	c #93829F",
"x.	c #B0A5B8",
"y.	c #8D838E",
"z.	c #A37782",
"A.	c #B88D98",
"B.	c #A99AB4",
"C.	c #A49BAA",
"D.	c #A4A0A7",
"E.	c #E2E2E2",
"F.	c #DEDEDE",
"G.	c #B1B1B1",
"H.	c #DBDBDB",
"I.	c #8C8C8C",
"J.	c #C8C8C8",
"K.	c #CACACA",
"L.	c #959595",
"M.	c #908F90",
"N.	c #8A888B",
"O.	c #AAA9AC",
"P.	c #A1A0A2",
"Q.	c #988AA1",
"R.	c #C2C2C2",
"S.	c #A29FA4",
"T.	c #A197A8",
"U.	c #ADA9AE",
"V.	c #888789",
"W.	c #E8E8E8",
"X.	c #8B8B8B",
"Y.	c #E9E9E9",
"Z.	c #858585",
"`.	c #DCDCDC",
" +	c #9E9E9E",
".+	c #C0C0C0",
"++	c #DFDFDF",
"@+	c #BFBFBF",
"#+	c #EFEFEF",
"$+	c #C6C6C6",
"%+	c #D0D0D0",
"&+	c #ECECEC",
"*+	c #EEEEEE",
"=+	c #A6A6A6",
"-+	c #F6F6F6",
";+	c #CECECE",
">+	c #939393",
",+	c #999999",
"'+	c #DDDDDD",
")+	c #EDEDED",
"!+	c #C1C1C1",
"~+	c #AFAFAF",
"{+	c #B7B7B7",
"]+	c #E5E5E5",
"^+	c #FCFCFC",
"/+	c #9C9C9C",
"(+	c #909090",
"_+	c #A5A5A5",
":+	c #E7E7E7",
"                                                                                                                                ",
"                                                                                                                                ",
"                                                                                                                                ",
"                                                                                                                                ",
"                                                                                                                                ",
"                                                                                                                                ",
"                                                                                                                                ",
"                                                                                                                                ",
"                                                                                                                                ",
"                                                                                                                                ",
"                                                                                                                                ",
"                                                        . + + + + @ + + +                                                       ",
"                                                  + . + + + + @ + + + + + + + +                                                 ",
"                                              + + . . + # $ % & $ * $ % % + + + + +                                             ",
"                                            + + + % # $ $ % $ * $ % $ $ $ $ = $ + + +                                           ",
"                                        + + @ % $ # $ $ - % ; * > , % ' = % % % $ $ + + +                                       ",
"                                      + @ + % % $ * $ - - - $ # ) ! ) = ~ % { $ $ = $ @ + +                                     ",
"                                    + @ @ $ * * $ % - - - - - ] ! ! ) ) ^ / $ ( $ % % $ + + +                                   ",
"                                  + + + * $ * $ $ _ $ - - - ) ) ) ) ) : ) * < $ [ % = * $ + @ +                                 ",
"                                  + + * $ $ ) $ ] ) , $ - ) _ ) ) ) ) ) ) < < < $ } $ % $ $ + +                                 ",
"                                + + $ $ $ ) ) ) ) ! ] ] | $ ) ) , 1 ) ) < < < < < { * ) $ * $ @ +                               ",
"                              + + $ $ $ ) ) ) ) ) ! ) * 2 $ # ] $ 3 $ 4 * < < < ) ) ) ) ) $ * $ + +                             ",
"                              + + $ $ % $ ) ) ) $ ) $ % $ * * 1 $ * 5 1 % $ < ) 4 ) ) ) ) ) * $ + +                             ",
"                            + + $ $ * $ $ $ ) * ( 1 $ $ $ $ $ % $ * * ( { 5 6 ) % % ) ) ) $ $ $ $ + +                           ",
"                            + + $ $ $ $ * * 1 $ $ % $ * * $ $ $ $ $ $ $ $ * ~ 7 { { $ ) $ % $ $ $ + +                           ",
"                            + + $ $ $ $ $ $ % $ * * $ + + + + + + + + + + + $ % $ ' ' 1 $ $ $ $ $ + +                           ",
"                          + + $ $ $ $ $ $ $ $ $ + + + + + + + + + + + + + + + + + $ $ % $ * * $ $ $ + +                         ",
"                          + + $ $ $ $ $ $ $ + + + + + + 8 8 8 + + + 8 8 8 + + + + + + $ $ $ $ $ $ $ + +                         ",
"                          + + $ $ $ $ $ + + + + + 8 8 8 8 8 + 9 9 9 + 8 8 8 8 8 + + + + + $ $ $ $ $ + +                         ",
"                          + + $ $ $ $ $ + 9 + 8 8 8 8 8 8 + 9 9 + 9 9 + 8 8 8 8 8 8 + 9 + $ $ $ $ $ + +                         ",
"                          + + $ $ $ $ $ + 9 + 8 8 8 8 8 8 + 9 9 + 9 9 + 8 8 8 8 8 8 + 9 + $ $ $ $ $ + +                         ",
"                          + + $ $ $ $ $ + + + 8 8 8 8 8 8 + 9 9 + 9 9 + 8 8 8 8 8 8 + + + $ $ $ $ $ + +                         ",
"                          + + $ $ $ $ $ $ + + + 8 8 8 8 8 8 + 9 9 9 + 8 8 8 8 8 8 + @ $ $ $ $ $ $ $ + +                         ",
"                          + + $ $ $ $ $ $ $ + + + + + + 8 8 8 + + + 8 8 8 + + + @ + + $ $ $ $ $ $ $ + +                         ",
"                          + + $ $ $ $ $ $ $ $ + 0 + @ + + + + + + + + + + a + @ @ + * $ $ % $ $ $ $ b c                         ",
"                            + + $ $ $ $ $ $ = $ % $ $ + + + + 0 @ + + a + + $ $ * $ $ $ $ $ $ $ $ d e                           ",
"                            + + $ $ $ $ $ = = % [ $ * = $ f % $ $ $ g g $ 5 $ * g $ ) $ * $ % h i e j                           ",
"                            b b k $ $ $ $ $ { $ * $ $ % = g % { * $ = ^ $ $ $ $ $ ) ) ) $ * l m n o p   q r                     ",
"                              b b k $ $ $ { $ * < $ : % ~ 5 ( $ % $ 5 $ $ < $ 5 ) 4 ) ) ) s t u v w   q r x r                   ",
"                              y z A k k $ $ $ < < < ) : { ' $ < ) { * = < < < % 5 ) ) B C D E F G H I J K x x x                 ",
"                      x q       z j L k k $ < < < < < : ) ! < < < , { < < < < < 5 h M N O - P Q p R S x J x x                   ",
"                    q x x x x x r T F k A = $ < < < ) ) ) < < < < < U * < < < $ V W X Y Z `  .Z r ..x +.@.#.                    ",
"                  q r r - x q $.K r w T %.&.* $ < $ 4 ) *.) < < < : $ $ $ < $ =.-.;.>.,.'.).Z r ......!.~.{.                    ",
"                r r r - - Z w ].r R ~.y o ^./.(._.* :.{ ) ) ) <.) = % 5 5 [.}.|.1.2.o 3.T x r ..........4.                      ",
"                  r - - Z Z - 5.6.7.v 8.w 9.0.k a.b.c.(.d.e.5 f.g.$ 2 h.i.j.k.l.!.Z m.{.R q n.r ......-                         ",
"                  r x - - o.Z ~.p.q...r.5.r.s.t.u.v.w.b.b.x.i y.O z.A.B.C.D.E.q.F.q G.S x H.- w r ..I.K J.                      ",
"                    x x o.x r ..q.H - o.r.K.L.q r M.H.N.O.P.Q.R.S.T.U.V.W.X.o.Y.z Z...- o.- F F.~.`.x Q                         ",
"                      q ].x ......7.o.- T  +L.Z.+.Z.L.R q..+2.- 3.Z.++ +Z.@+#+7.........7.o.q.- q.o $+                          ",
"                        G ..........o.r - ].L.5.%+L...L.&+X.Z - - H.S o ....*+r ..........F.- - @.$.                            ",
"                          Z ......- r r r - @+- 7.......S o.- - - - o ......r F.r ......r G.- {.                                ",
"                            Z ..=+n.r r r r 7.7...........~.q.- - r ..........~.r r ..r 7.L.p.    x                             ",
"                              F.J S r r r - - Z - ......-+;+r - r L.- ......!.r ~.W.Y.  >+p.R x ,+                              ",
"                                  +.o.r S I.o.- r r ..r n.{.G.R '+o - - ..o.)+r !+~+{+  Y.                                      ",
"                                          ,+r.q...~.Y.r ..;+@+8.Z.S 5.o.]+ +!.q     %+o.                                        ",
"                                                ..w n.2.^+o.Z ,+3.,./+(+_+- F.:+- 7.                                            ",
"                                                                r.- r.-                                                         ",
"                                                                                                                                ",
"                                                                                                                                ",
"                                                                                                                                ",
"                                                                                                                                ",
"                                                                                                                                ",
"                                                                                                                                ",
"                                                                                                                                ",
"                                                                                                                                "};
