/* XPM */
static char * enemy_right_6_xpm[] = {
"64 64 341 2",
"  	c None",
". 	c #000000",
"+ 	c #18151C",
"@ 	c #111111",
"# 	c #9877B0",
"$ 	c #9471AB",
"% 	c #AD8AC6",
"& 	c #987DAE",
"* 	c #8B7F93",
"= 	c #9F73A6",
"- 	c #B693D0",
"; 	c #BB99D4",
"> 	c #9578AA",
", 	c #94889D",
"' 	c #878787",
") 	c #927083",
"! 	c #83141A",
"~ 	c #190203",
"{ 	c #BC81B2",
"] 	c #B386BB",
"^ 	c #BC98D4",
"/ 	c #BB98D5",
"( 	c #AE8DC8",
"_ 	c #AF8CC8",
": 	c #BF85B6",
"< 	c #998DA2",
"[ 	c #8E7778",
"} 	c #AF354D",
"| 	c #BD131B",
"1 	c #BD82B3",
"2 	c #C186B8",
"3 	c #BA4158",
"4 	c #C086B7",
"5 	c #B495C9",
"6 	c #BD435C",
"7 	c #B18FCA",
"8 	c #92899A",
"9 	c #BC86BB",
"0 	c #996497",
"a 	c #9C7DB6",
"b 	c #AF90CA",
"c 	c #BB9AD5",
"d 	c #BB95D0",
"e 	c #9F81B9",
"f 	c #9173A5",
"g 	c #BD121A",
"h 	c #BB9CD6",
"i 	c #BC95CA",
"j 	c #B08DC8",
"k 	c #9D699C",
"l 	c #B1374F",
"m 	c #BE334A",
"n 	c #BD3C53",
"o 	c #2C2734",
"p 	c #B796D3",
"q 	c #B794D1",
"r 	c #A88CC5",
"s 	c #B99CD6",
"t 	c #BB9BD7",
"u 	c #B898D4",
"v 	c #A689C1",
"w 	c #BA9CD6",
"x 	c #BE8CBF",
"y 	c #BC91CA",
"z 	c #B93F58",
"A 	c #B795D2",
"B 	c #BA9CD5",
"C 	c #BA99D5",
"D 	c #A485BE",
"E 	c #BA96D4",
"F 	c #BA95D4",
"G 	c #B792D1",
"H 	c #BE5A73",
"I 	c #4E445B",
"J 	c #A484BB",
"K 	c #9C7CB5",
"L 	c #A989C1",
"M 	c #B895D2",
"N 	c #BA9AD4",
"O 	c #BA9CD4",
"P 	c #B897D2",
"Q 	c #BA9AD5",
"R 	c #B091CC",
"S 	c #B794D0",
"T 	c #BB87BB",
"U 	c #B995D4",
"V 	c #BB96D5",
"W 	c #B32F47",
"X 	c #B83E57",
"Y 	c #BB97D5",
"Z 	c #BC415B",
"` 	c #B07CB1",
" .	c #BA97D5",
"..	c #B797D2",
"+.	c #BB99D6",
"@.	c #4E4E4E",
"#.	c #2C2C2C",
"$.	c #A285BD",
"%.	c #BC97D6",
"&.	c #301C23",
"*.	c #6A6A6A",
"=.	c #5A5A5A",
"-.	c #B895D1",
";.	c #BB97D3",
">.	c #BB97D4",
",.	c #9D9D9D",
"'.	c #676767",
").	c #988AA0",
"!.	c #B693CF",
"~.	c #B08DCA",
"{.	c #A071A4",
"].	c #C7637D",
"^.	c #ADADAD",
"/.	c #A8A8A8",
"(.	c #929292",
"_.	c #8D8D8D",
":.	c #84788C",
"<.	c #9B96A0",
"[.	c #8D789A",
"}.	c #BF88BA",
"|.	c #B28DC6",
"1.	c #9C82AE",
"2.	c #B4B4B4",
"3.	c #B3B3B3",
"4.	c #AFAFAF",
"5.	c #848484",
"6.	c #7E7C7F",
"7.	c #786F7E",
"8.	c #A297AB",
"9.	c #BE90C5",
"0.	c #B890CB",
"a.	c #C96F8D",
"b.	c #D64D56",
"c.	c #ACACAC",
"d.	c #8A8A8A",
"e.	c #757178",
"f.	c #7D7D7D",
"g.	c #939393",
"h.	c #3D2C48",
"i.	c #858585",
"j.	c #5F5A62",
"k.	c #7A7480",
"l.	c #958F98",
"m.	c #AE92C0",
"n.	c #B18BC4",
"o.	c #BC85B7",
"p.	c #CC6882",
"q.	c #A48FB1",
"r.	c #A2A2A2",
"s.	c #9B9B9B",
"t.	c #909090",
"u.	c #919191",
"v.	c #3F2E4A",
"w.	c #7E7E7E",
"x.	c #837F85",
"y.	c #98929D",
"z.	c #9F8DAC",
"A.	c #8F75A1",
"B.	c #987AAC",
"C.	c #8C8C8C",
"D.	c #726E75",
"E.	c #483753",
"F.	c #2C123D",
"G.	c #545454",
"H.	c #41304C",
"I.	c #717171",
"J.	c #7A797B",
"K.	c #9F9BA2",
"L.	c #A49EA9",
"M.	c #9B8BA6",
"N.	c #C088BA",
"O.	c #9C6C9F",
"P.	c #ABABAB",
"Q.	c #A6A6A6",
"R.	c #686868",
"S.	c #7C7C7C",
"T.	c #777777",
"U.	c #969696",
"V.	c #808080",
"W.	c #8F8B93",
"X.	c #9D989F",
"Y.	c #A294A5",
"Z.	c #BD91C5",
"`.	c #BF8EC3",
" +	c #9C7AB5",
".+	c #A089AF",
"++	c #BC7083",
"@+	c #AEAEAE",
"#+	c #A8A4AB",
"$+	c #6E6E6E",
"%+	c #E0E0E0",
"&+	c #464646",
"*+	c #574662",
"=+	c #8E8E8E",
"-+	c #9E9E9E",
";+	c #9A94A0",
">+	c #B2A6BA",
",+	c #BA91B7",
"'+	c #A574A1",
")+	c #A986C1",
"!+	c #B18EC9",
"~+	c #A789BD",
"{+	c #C06279",
"]+	c #AF6376",
"^+	c #B65F75",
"/+	c #AA9EB1",
"(+	c #8C888F",
"_+	c #BDBDBD",
":+	c #6F6F6F",
"<+	c #423E45",
"[+	c #969299",
"}+	c #837F86",
"|+	c #584763",
"1+	c #817D84",
"2+	c #9B969F",
"3+	c #A192A5",
"4+	c #AD9EB8",
"5+	c #866F95",
"6+	c #846698",
"7+	c #B39BC2",
"8+	c #BF95C3",
"9+	c #BD88B8",
"0+	c #A98FBC",
"a+	c #9E586F",
"b+	c #B07E8A",
"c+	c #A28DB1",
"d+	c #A27EA5",
"e+	c #9882A8",
"f+	c #533D61",
"g+	c #5F5F5F",
"h+	c #7F7B82",
"i+	c #7E7683",
"j+	c #606060",
"k+	c #604F6B",
"l+	c #C6C6C6",
"m+	c #D0CCD3",
"n+	c #989898",
"o+	c #838383",
"p+	c #5B4A66",
"q+	c #9E9AA1",
"r+	c #A5A5A5",
"s+	c #A49BAA",
"t+	c #4C3958",
"u+	c #B590BC",
"v+	c #9B7AA3",
"w+	c #7B678A",
"x+	c #928797",
"y+	c #9F91A7",
"z+	c #5A4568",
"A+	c #A490B2",
"B+	c #8E799D",
"C+	c #8A7996",
"D+	c #837B88",
"E+	c #908D92",
"F+	c #949295",
"G+	c #4F4F4F",
"H+	c #B5B5B5",
"I+	c #595959",
"J+	c #A1A1A1",
"K+	c #34233F",
"L+	c #FFFFFF",
"M+	c #5D5D5D",
"N+	c #DBDBDB",
"O+	c #443150",
"P+	c #42314D",
"Q+	c #696969",
"R+	c #ADA9AE",
"S+	c #4D3A58",
"T+	c #ADACAE",
"U+	c #C0C0C0",
"V+	c #9C90A4",
"W+	c #9A999B",
"X+	c #B4B3B4",
"Y+	c #4D3B58",
"Z+	c #78747B",
"`+	c #C4C3C4",
" @	c #4A464D",
".@	c #7B7B7B",
"+@	c #6D6D6D",
"@@	c #5E5E5E",
"#@	c #362541",
"$@	c #97939A",
"%@	c #473652",
"&@	c #79757C",
"*@	c #493854",
"=@	c #4B3A56",
"-@	c #999999",
";@	c #737373",
">@	c #747474",
",@	c #4A3955",
"'@	c #D9D9D9",
")@	c #797979",
"!@	c #9F9F9F",
"~@	c #443250",
"{@	c #C3BFC6",
"]@	c #7F7F7F",
"^@	c #9C989F",
"/@	c #4B3858",
"(@	c #E8E8E8",
"_@	c #8F8F8F",
":@	c #4A3756",
"<@	c #99959C",
"[@	c #787878",
"}@	c #4A3857",
"|@	c #4B3857",
"1@	c #4D3C58",
"2@	c #4B4B4B",
"3@	c #372443",
"4@	c #372642",
"5@	c #4C3B57",
"6@	c #949494",
"7@	c #594864",
"8@	c #9B979E",
"9@	c #656565",
"0@	c #757575",
"a@	c #888888",
"b@	c #43304F",
"c@	c #B2B2B2",
"d@	c #544160",
"e@	c #554460",
"f@	c #4E3D59",
"g@	c #656168",
"h@	c #D6D6D6",
"i@	c #352440",
"j@	c #BABABA",
"k@	c #E5E5E5",
"l@	c #B5B1B8",
"m@	c #D8D8D8",
"n@	c #868686",
"o@	c #B7B7B7",
"p@	c #AAA6AD",
"q@	c #828282",
"r@	c #7A7A7A",
"s@	c #494949",
"t@	c #525252",
"u@	c #DADADA",
"v@	c #DEDEDE",
"w@	c #A7A7A7",
"x@	c #AAAAAA",
"y@	c #A9A9A9",
"z@	c #6B6B6B",
"                                                                                                                                ",
"                                                                                                                                ",
"                                                                                                                                ",
"                                                                                                                                ",
"                                                                                                                                ",
"                                                                                                                                ",
"                                                                                                                                ",
"                                                                                                                                ",
"                                                                                                                                ",
"                                                                                                                                ",
"                                                                                                                                ",
"                                                      . . . + . . . . @                                                         ",
"                                                . . . . . . . . + . . . . @ .                                                   ",
"                                            . . . . . # # $ % $ & # $ * . @ @ . .                                               ",
"                                          . . . $ = $ $ $ $ # $ % $ # $ $ * # . . .                                             ",
"                                      . . . $ $ # # # = - # ; > % , # ' $ $ ) $ # ! . ~                                         ",
"                                    . . + $ = $ $ { # ] = ^ / ^ * $ ' ' ' $ % $ # # . ! .                                       ",
"                                  . . . $ # # $ ( $ _ : ^ ^ / / < ' ' ' ' [ # } % | $ + ! .                                     ",
"                                . + . $ % = # 1 $ ^ % ^ 2 ^ ^ ^ ^ ^ ' ' ' $ 3 $ | | | % . . .                                   ",
"                                . . $ $ # $ 4 $ ^ ^ ^ ^ ; ^ ^ ^ ^ 5 ^ ' $ ; 6 | | | | | % . .                                   ",
"                              . + $ % $ ^ % { ^ ^ ^ ^ ^ ^ ^ 7 ; ^ ^ $ 8 < < / 9 | | | $ 0 $ . .                                 ",
"                            . . a b $ c c c c ^ ^ ^ ^ % d $ e # < * $ f % ; / 9 ^ g ^ ^ $ } $ . .                               ",
"                            . . a b h h ^ c c i c ^ $ # j : - $ j % % $ k $ ^ l ^ m n } # $ $ . .                               ",
"                          o o $ p q r s t t u v w x y { ^ % % _ # $ # $ $ % z z ( n $ $ $ % $ $ . .                             ",
"                          o o a q A B C D u E F G ( $ ^ ^ ^ $ $ $ # $ 0 $ } $ | $ $ } $ H q % $ $ . .                           ",
"                          I J q / ^ / B C / / G G F ^ ^ ^ ^ ^ % $ K # % } ^ | | | $ $ - $ # . . . . .                           ",
"                        o L / ; ^ / / B B B / ^ # $ $ ^ ^ ^ $ # $ % % $ 6 | | | | | $ $ . . . . . . .                           ",
"                        o M / ^ N ^ ^ / / O O ; ^ $ K # ^ % $ ^ % $ - ^ ^ ^ | | | $ 0 . . . . . . . . .                         ",
"                        . P ; / Q N ; / / / O O R a # # S % / ^ ^ $ $ $ ^ T ^ | # $ . . . . . . . . . .                         ",
"                        . J / Q ^ / ^ ^ / / / U G F V $ ( ^ ; ^ ^ ^ $ # $ ^ $ W } X . . . . . . . . . .                         ",
"                        . . q Q Q C / / ^ ^ Y Y Y $ $ % $ $ ^ ^ ; $ K $ } Z % ` # $ . . . . . . . . . .                         ",
"                        . J C G / / / ^ ^ ^ ^ ^ ^ ^ $ # $ # % ^ # # % - $ # $ % $ $ . . . . . . . . . .                         ",
"                        . J  .C / / / ^ ^ ^ ^ ^ ^ ^ ^ $ $ $ $ j - ( $ % $ ^ $ $ % $ $ + . . . . . . . .                         ",
"                        . J G $ a ..^ ^ ^ ^ ^ +.; ^ # # - % ^ # $ % % $ ^ ^ ^ $ $ $ $ . + . . . . . . .                         ",
"                        @.#.G U % D $.; ^ ^ # G %.% # % % ^ ^ ^ $ $ % ^ ^ ^ ^ ^ $ $ $ % + + &.. . . .                           ",
"                          *.=.$ G G $ -.;.>.U % j % % % ; ^ ^ ^ ; $ $ $ ^ ^ ^ $ # $ $ $ % $ . &.. + .                           ",
"                          ,.'.).!. .U ~.a ( % # # $ % $ # ; ^ ^ $ # # # $ ^ $ $ $ % % ^ {.% ].{.{..                             ",
"                    ^./.  (._.:.<.[.% $ ^ ^ ^ $ $ $ $ $ }.= ^ % { # |.= # j % - $ H $ $ $ $ $ 1.#..                             ",
"                  2.3.2.4.  ^.5.6.7.8.^ ^ ^ 9.^ : $ ^ $ $ : j _ % ( y 0.# a.$ b.% $ H $ $ $ 1.#.#.                              ",
"                3.c.3.d.e.f.g.h.i.j.k.l.m.^ ^ : # ^ ^ ^ n.% o.^ ^ $ - { p.^ b.b.b.$ $ $ 1.1.q.r.s.                              ",
"                  3.t.u.f.f.f.(.@.v.w.x.y.z.A.: ^ ^ ^ ^ ^ { ; ^ ^ ^ / ^ p.b.b.b.b.b.$ 1.1.B.,.r.                                ",
"                    C.D.w.E.f.F.5.G.H.I.J.K.L.M.$ ^ ^ ^ % N.^ ^ ^ ^ ^ ^ ^ ^ b.b.b.$ O.q.1.4.P.Q.3.R.                            ",
"                    2.2.E.f.F.F.F.S.T.,.U.V.W.X.Y.B.^ $ $ $ 2 ^ ^ ^ ^ Z.^ `.$ b.$  +.+++P.c.@+#+$+%+&+                          ",
"                      r.*+F.F.F.F.F.S.f.=+-+r.=+;+>+,+: '+# = ^ ^ ^ )+^ { !+~+{+]+^+/+(+u._+d.2.:+<+&+&+&+&+2.2.                ",
"                      2.5.S.F.F.F.f.[+}+f.f.|+c.1+2+3+4+5+f 6+7+8+: 9+0+a+b+c+d+e+f+g+h+i+^.j+k+l+m+<+&+&+' Q.                  ",
"                    P.n+o+D.f.F.f.f.f.E.f.f.S.3.p+q+r+s+t+u+v+w+x+y+z+A+B+C+D+E+F+f.V.k+G+2.H+I+J+K+L+&+M+3.2.                  ",
"                        N+s.f.O+E.E.D.f.E.f.F.f.t.P+d._+Q+R+S+T+U+V+W+X+Y+Z+`+*+o+F.H+ @p+p+2.F.&+&+K+.@+@+@                    ",
"                      @@#@h.g.D.f.f.f.E.f.F.F.F.$@2.%@i.F.f.&@*@=@-@F._.;@*+E.>@F.F.F.2.p+2.F.F.F.&+&+&+3.                      ",
"                          @.G.f.f.f.f.E.F.F.F.F.F.,@2.F.F.F.N+p+' F.F.F.'@f.E.F.F.F.F.F.p+F.F.F.F.F.&+H+                        ",
"                          w.)@  !@f.f.f.f.F.F.F.f.~@F.F.F.F.F.p+F.F.F.F.F.f.f.f.F.F.F.G.<+2.F.F.F.C.{@                          ",
"                            5.T.Q.r+V.f.D.]@F.f.f.f.E.F.F.F.2.^@3.F.F.F.2.D.f.D.@@F.&+&+&+/@C.F.(@j+G.P+                        ",
"                              V.S.]@r+Q._._@:@E.E.f.<@[@F.' 2.2.}@+@F.2.^.&+E.L+C.|@,@1@&+G.2@3@4@5@                            ",
"                                    6@p+7@H+8@9@f.0@:+a@b@,@=@2.6@c@d@p+K+&+e@f@V.g@h@&+i@#@@.                                  ",
"                                      j@+@I.    T.,@*@k@l@m@n@*+|+o@p@n+q@,.5.a@r@G+2@s@t@                                      ",
"                                          P.d.' u@v@' r+w@P.s._@x@y@)@=+:+z@$+L+                                                ",
"                                                        ' a@' a@                                                                ",
"                                                                                                                                ",
"                                                                                                                                ",
"                                                                                                                                ",
"                                                                                                                                ",
"                                                                                                                                ",
"                                                                                                                                ",
"                                                                                                                                ",
"                                                                                                                                "};
