/* XPM */
static char * enemy_left_6_xpm[] = {
"64 64 341 2",
"  	c None",
". 	c #111111",
"+ 	c #000000",
"@ 	c #18151C",
"# 	c #8B7F93",
"$ 	c #9471AB",
"% 	c #9877B0",
"& 	c #987DAE",
"* 	c #AD8AC6",
"= 	c #9F73A6",
"- 	c #190203",
"; 	c #83141A",
"> 	c #927083",
", 	c #878787",
"' 	c #94889D",
") 	c #9578AA",
"! 	c #BB99D4",
"~ 	c #B693D0",
"{ 	c #BC98D4",
"] 	c #BB98D5",
"^ 	c #B386BB",
"/ 	c #BC81B2",
"( 	c #BD131B",
"_ 	c #AF354D",
": 	c #8E7778",
"< 	c #998DA2",
"[ 	c #BF85B6",
"} 	c #AF8CC8",
"| 	c #AE8DC8",
"1 	c #BA4158",
"2 	c #C186B8",
"3 	c #BD82B3",
"4 	c #BD435C",
"5 	c #B495C9",
"6 	c #C086B7",
"7 	c #996497",
"8 	c #BC86BB",
"9 	c #92899A",
"0 	c #B18FCA",
"a 	c #BD121A",
"b 	c #9173A5",
"c 	c #9F81B9",
"d 	c #BB95D0",
"e 	c #BB9AD5",
"f 	c #AF90CA",
"g 	c #9C7DB6",
"h 	c #BD3C53",
"i 	c #BE334A",
"j 	c #B1374F",
"k 	c #9D699C",
"l 	c #B08DC8",
"m 	c #BC95CA",
"n 	c #BB9CD6",
"o 	c #B93F58",
"p 	c #BC91CA",
"q 	c #BE8CBF",
"r 	c #BA9CD6",
"s 	c #A689C1",
"t 	c #B898D4",
"u 	c #BB9BD7",
"v 	c #B99CD6",
"w 	c #A88CC5",
"x 	c #B794D1",
"y 	c #B796D3",
"z 	c #2C2734",
"A 	c #BE5A73",
"B 	c #B792D1",
"C 	c #BA95D4",
"D 	c #BA96D4",
"E 	c #A485BE",
"F 	c #BA99D5",
"G 	c #BA9CD5",
"H 	c #B795D2",
"I 	c #9C7CB5",
"J 	c #A484BB",
"K 	c #4E445B",
"L 	c #A989C1",
"M 	c #BA9CD4",
"N 	c #BA9AD4",
"O 	c #B895D2",
"P 	c #BB87BB",
"Q 	c #B794D0",
"R 	c #B091CC",
"S 	c #BA9AD5",
"T 	c #B897D2",
"U 	c #B83E57",
"V 	c #B32F47",
"W 	c #BB96D5",
"X 	c #B995D4",
"Y 	c #B07CB1",
"Z 	c #BC415B",
"` 	c #BB97D5",
" .	c #BA97D5",
"..	c #BB99D6",
"+.	c #B797D2",
"@.	c #301C23",
"#.	c #BC97D6",
"$.	c #A285BD",
"%.	c #2C2C2C",
"&.	c #4E4E4E",
"*.	c #BB97D4",
"=.	c #BB97D3",
"-.	c #B895D1",
";.	c #5A5A5A",
">.	c #6A6A6A",
",.	c #A071A4",
"'.	c #C7637D",
").	c #B08DCA",
"!.	c #B693CF",
"~.	c #988AA0",
"{.	c #676767",
"].	c #9D9D9D",
"^.	c #9C82AE",
"/.	c #B28DC6",
"(.	c #BF88BA",
"_.	c #8D789A",
":.	c #9B96A0",
"<.	c #84788C",
"[.	c #8D8D8D",
"}.	c #929292",
"|.	c #A8A8A8",
"1.	c #ADADAD",
"2.	c #D64D56",
"3.	c #C96F8D",
"4.	c #B890CB",
"5.	c #BE90C5",
"6.	c #A297AB",
"7.	c #786F7E",
"8.	c #7E7C7F",
"9.	c #848484",
"0.	c #AFAFAF",
"a.	c #B4B4B4",
"b.	c #B3B3B3",
"c.	c #9B9B9B",
"d.	c #A2A2A2",
"e.	c #A48FB1",
"f.	c #CC6882",
"g.	c #BC85B7",
"h.	c #B18BC4",
"i.	c #AE92C0",
"j.	c #958F98",
"k.	c #7A7480",
"l.	c #5F5A62",
"m.	c #858585",
"n.	c #3D2C48",
"o.	c #939393",
"p.	c #7D7D7D",
"q.	c #757178",
"r.	c #8A8A8A",
"s.	c #ACACAC",
"t.	c #987AAC",
"u.	c #8F75A1",
"v.	c #9F8DAC",
"w.	c #98929D",
"x.	c #837F85",
"y.	c #7E7E7E",
"z.	c #3F2E4A",
"A.	c #919191",
"B.	c #909090",
"C.	c #686868",
"D.	c #A6A6A6",
"E.	c #ABABAB",
"F.	c #9C6C9F",
"G.	c #C088BA",
"H.	c #9B8BA6",
"I.	c #A49EA9",
"J.	c #9F9BA2",
"K.	c #7A797B",
"L.	c #717171",
"M.	c #41304C",
"N.	c #545454",
"O.	c #2C123D",
"P.	c #483753",
"Q.	c #726E75",
"R.	c #8C8C8C",
"S.	c #464646",
"T.	c #E0E0E0",
"U.	c #6E6E6E",
"V.	c #A8A4AB",
"W.	c #AEAEAE",
"X.	c #BC7083",
"Y.	c #A089AF",
"Z.	c #9C7AB5",
"`.	c #BF8EC3",
" +	c #BD91C5",
".+	c #A294A5",
"++	c #9D989F",
"@+	c #8F8B93",
"#+	c #808080",
"$+	c #969696",
"%+	c #777777",
"&+	c #7C7C7C",
"*+	c #423E45",
"=+	c #6F6F6F",
"-+	c #BDBDBD",
";+	c #8C888F",
">+	c #AA9EB1",
",+	c #B65F75",
"'+	c #AF6376",
")+	c #C06279",
"!+	c #A789BD",
"~+	c #B18EC9",
"{+	c #A986C1",
"]+	c #A574A1",
"^+	c #BA91B7",
"/+	c #B2A6BA",
"(+	c #9A94A0",
"_+	c #8E8E8E",
":+	c #9E9E9E",
"<+	c #574662",
"[+	c #D0CCD3",
"}+	c #C6C6C6",
"|+	c #604F6B",
"1+	c #606060",
"2+	c #7E7683",
"3+	c #7F7B82",
"4+	c #5F5F5F",
"5+	c #533D61",
"6+	c #9882A8",
"7+	c #A27EA5",
"8+	c #A28DB1",
"9+	c #B07E8A",
"0+	c #9E586F",
"a+	c #A98FBC",
"b+	c #BD88B8",
"c+	c #BF95C3",
"d+	c #B39BC2",
"e+	c #846698",
"f+	c #866F95",
"g+	c #AD9EB8",
"h+	c #A192A5",
"i+	c #9B969F",
"j+	c #817D84",
"k+	c #584763",
"l+	c #837F86",
"m+	c #969299",
"n+	c #5D5D5D",
"o+	c #FFFFFF",
"p+	c #34233F",
"q+	c #A1A1A1",
"r+	c #595959",
"s+	c #B5B5B5",
"t+	c #4F4F4F",
"u+	c #949295",
"v+	c #908D92",
"w+	c #837B88",
"x+	c #8A7996",
"y+	c #8E799D",
"z+	c #A490B2",
"A+	c #5A4568",
"B+	c #9F91A7",
"C+	c #928797",
"D+	c #7B678A",
"E+	c #9B7AA3",
"F+	c #B590BC",
"G+	c #4C3958",
"H+	c #A49BAA",
"I+	c #A5A5A5",
"J+	c #9E9AA1",
"K+	c #5B4A66",
"L+	c #838383",
"M+	c #989898",
"N+	c #6D6D6D",
"O+	c #7B7B7B",
"P+	c #4A464D",
"Q+	c #C4C3C4",
"R+	c #78747B",
"S+	c #4D3B58",
"T+	c #B4B3B4",
"U+	c #9A999B",
"V+	c #9C90A4",
"W+	c #C0C0C0",
"X+	c #ADACAE",
"Y+	c #4D3A58",
"Z+	c #ADA9AE",
"`+	c #696969",
" @	c #42314D",
".@	c #443150",
"+@	c #DBDBDB",
"@@	c #747474",
"#@	c #737373",
"$@	c #999999",
"%@	c #4B3A56",
"&@	c #493854",
"*@	c #79757C",
"=@	c #473652",
"-@	c #97939A",
";@	c #362541",
">@	c #5E5E5E",
",@	c #D9D9D9",
"'@	c #4A3955",
")@	c #C3BFC6",
"!@	c #443250",
"~@	c #9F9F9F",
"{@	c #797979",
"]@	c #E8E8E8",
"^@	c #4B3858",
"/@	c #9C989F",
"(@	c #7F7F7F",
"_@	c #4C3B57",
":@	c #372642",
"<@	c #372443",
"[@	c #4B4B4B",
"}@	c #4D3C58",
"|@	c #4B3857",
"1@	c #4A3857",
"2@	c #787878",
"3@	c #99959C",
"4@	c #4A3756",
"5@	c #8F8F8F",
"6@	c #352440",
"7@	c #D6D6D6",
"8@	c #656168",
"9@	c #4E3D59",
"0@	c #554460",
"a@	c #544160",
"b@	c #B2B2B2",
"c@	c #949494",
"d@	c #43304F",
"e@	c #888888",
"f@	c #757575",
"g@	c #656565",
"h@	c #9B979E",
"i@	c #594864",
"j@	c #525252",
"k@	c #494949",
"l@	c #7A7A7A",
"m@	c #828282",
"n@	c #AAA6AD",
"o@	c #B7B7B7",
"p@	c #868686",
"q@	c #D8D8D8",
"r@	c #B5B1B8",
"s@	c #E5E5E5",
"t@	c #BABABA",
"u@	c #6B6B6B",
"v@	c #A9A9A9",
"w@	c #AAAAAA",
"x@	c #A7A7A7",
"y@	c #DEDEDE",
"z@	c #DADADA",
"                                                                                                                                ",
"                                                                                                                                ",
"                                                                                                                                ",
"                                                                                                                                ",
"                                                                                                                                ",
"                                                                                                                                ",
"                                                                                                                                ",
"                                                                                                                                ",
"                                                                                                                                ",
"                                                                                                                                ",
"                                                                                                                                ",
"                                                        . + + + + @ + + +                                                       ",
"                                                  + . + + + + @ + + + + + + + +                                                 ",
"                                              + + . . + # $ % & $ * $ % % + + + + +                                             ",
"                                            + + + % # $ $ % $ * $ % $ $ $ $ = $ + + +                                           ",
"                                        - + ; % $ > $ $ , % ' * ) ! % ~ = % % % $ $ + + +                                       ",
"                                      + ; + % % $ * $ , , , $ # { ] { = ^ % / $ $ = $ @ + +                                     ",
"                                    + ; @ $ ( * _ % : , , , , < ] ] { { [ } $ | $ % % $ + + +                                   ",
"                                  + + + * ( ( ( $ 1 $ , , , { { { { { 2 { * { $ 3 % = * $ + @ +                                 ",
"                                  + + * ( ( ( ( ( 4 ! $ , { 5 { { { { ! { { { { $ 6 $ % $ $ + +                                 ",
"                                + + $ 7 $ ( ( ( 8 ] < < 9 $ { { ! 0 { { { { { { { / * { $ * $ @ +                               ",
"                              + + $ _ $ { { a { 8 ] ! * b $ # < % c $ d * { { { { e e e e $ f g + +                             ",
"                              + + $ $ % _ h i { j { $ k $ * * l $ ~ [ l % $ { e m e e { n n f g + +                             ",
"                            + + $ $ * $ $ $ h | o o * $ $ % $ % } * * { / p q r s t u u v w x y $ z z                           ",
"                          + + $ $ * x A $ _ $ $ ( $ _ $ 7 $ % $ $ $ { { { $ | B C D t E F G H x g z z                           ",
"                          + + + + + % $ ~ $ $ ( ( ( { _ * % I $ * { { { { { C B B ] ] F G ] { ] x J K                           ",
"                          + + + + + + + $ $ ( ( ( ( ( 4 $ * * $ % $ { { { $ $ % { ] G G G ] ] { ! ] L z                         ",
"                        + + + + + + + + + 7 $ ( ( ( { { { ~ $ * { $ * { % I $ { ! M M ] ] { { N { ] O z                         ",
"                        + + + + + + + + + + $ % ( { P { $ $ $ { { ] * Q % % g R M M ] ] ] ! N S ] ! T +                         ",
"                        + + + + + + + + + + U _ V $ { $ % $ { { { ! { | $ W C B X ] ] ] { { ] { S ] J +                         ",
"                        + + + + + + + + + + $ % Y * Z _ $ I $ ! { { $ $ * $ $ ` ` ` { { ] ] F S S x + +                         ",
"                        + + + + + + + + + + $ $ * $ % $ ~ * % % { * % $ % $ { { { { { { { ] ] ] B F J +                         ",
"                        + + + + + + + + @ $ $ * $ $ { $ * $ | ~ l $ $ $ $ { { { { { { { { ] ] ] F  .J +                         ",
"                        + + + + + + + @ + $ $ $ $ { { { $ * * $ % { * ~ % % { ! ..{ { { { { +.g $ B J +                         ",
"                          + + + + @.@ @ * $ $ $ { { { { { * $ $ { { { * * % * #.B % { { ! $.E * X B %.&.                        ",
"                          + @ + @.+ $ * $ $ $ % $ { { { $ $ $ ! { { { ! * * * l * X *.=.-.$ B B $ ;.>.                          ",
"                            + ,.,.'.* ,.{ * * $ $ $ { $ % % % $ { { ! % $ * $ % % * | g ).X  .!.~.{.].                          ",
"                            + %.^.$ $ $ $ $ A $ ~ * l % = /.% / * { = (.$ $ $ $ $ { { { $ * _.:.<.[.}.  |.1.                    ",
"                              %.%.^.$ $ $ A $ * 2.$ 3.% 4.p | * } l [ $ $ { $ [ { 5.{ { { 6.7.8.9.1.  0.a.b.a.                  ",
"                              c.d.e.^.^.$ $ $ 2.2.2.{ f./ ~ $ { { g.* h.{ { { % [ { { i.j.k.l.m.n.o.p.q.r.b.s.b.                ",
"                                d.].t.^.^.$ 2.2.2.2.2.f.{ ] { { { ! / { { { { { [ u.v.w.x.y.z.&.}.p.p.p.A.B.b.                  ",
"                            C.b.D.E.0.^.e.F.$ 2.2.2.{ { { { { { { { G.* { { { $ H.I.J.K.L.M.N.9.O.p.P.y.Q.R.                    ",
"                          S.T.U.V.W.s.E.X.Y.Z.$ 2.$ `.{  +{ { { { 2 $ $ $ { t..+++@+#+$+].%+&+O.O.O.p.P.a.a.                    ",
"                a.a.S.S.S.S.*+=+a.r.-+A.;+>+,+'+)+!+~+/ { {+{ { { = % ]+[ ^+/+(+_+d.:+_+p.&+O.O.O.O.O.<+d.                      ",
"                  D., S.S.*+[+}+|+1+1.2+3+4+5+6+7+8+9+0+a+b+[ c+d+e+b f+g+h+i+j+s.k+p.p.l+m+p.O.O.O.&+9.a.                      ",
"                  a.b.n+S.o+p+q+r+s+a.t+|+#+p.u+v+w+x+y+z+A+B+C+D+E+F+G+H+I+J+K+b.&+p.p.P.p.p.p.O.p.Q.L+M+E.                    ",
"                    N+N+O+p+S.S.O.a.K+K+P+s+O.L+<+Q+R+S+T+U+V+W+X+Y+Z+`+-+r. @B.p.O.p.P.p.Q.P.P..@p.c.+@                        ",
"                      b.S.S.S.O.O.O.a.K+a.O.O.O.@@P.<+#@[.O.$@%@&@*@p.O.m.=@a.-@O.O.O.p.P.p.p.p.Q.o.n.;@>@                      ",
"                        s+S.O.O.O.O.O.K+O.O.O.O.O.P.p.,@O.O.O., K++@O.O.O.a.'@O.O.O.O.O.P.p.p.p.p.N.&.                          ",
"                          )@R.O.O.O.a.*+N.O.O.O.p.p.p.O.O.O.O.O.K+O.O.O.O.O.!@p.O.O.O.p.p.p.p.~@  {@y.                          ",
"                         @N.1+]@O.R.^@S.S.S.O.>@Q.p.Q.a.O.O.O.b./@a.O.O.O.P.p.p.p.O.(@Q.p.#+I+D.%+9.                            ",
"                            _@:@<@[@N.S.}@'@|@R.o+P.S.1.a.O.N+1@a.a., O.2@3@p.P.P.4@5@[.D.I+(@&+#+                              ",
"                                  &.;@6@S.7@8@#+9@0@S.p+K+a@b@c@a.%@'@d@e@=+f@p.g@h@s+i@K+c@                                    ",
"                                      j@k@[@t+l@e@9.].m@M+n@o@k+<+p@q@r@s@&@'@%+    L.N+t@                                      ",
"                                                o+U.u@=+_+{@v@w@5@c.E.x@I+, y@z@, r.E.                                          ",
"                                                                e@, e@,                                                         ",
"                                                                                                                                ",
"                                                                                                                                ",
"                                                                                                                                ",
"                                                                                                                                ",
"                                                                                                                                ",
"                                                                                                                                ",
"                                                                                                                                ",
"                                                                                                                                "};
