/* XPM */
static char * enemy_right_5_xpm[] = {
"64 64 343 2",
"  	c #FF00FF",
". 	c #000000",
"+ 	c #18151C",
"@ 	c #111111",
"# 	c #9877B0",
"$ 	c #9471AB",
"% 	c #AD8AC6",
"& 	c #987DAE",
"* 	c #8B7F93",
"= 	c #9F73A6",
"- 	c #B693D0",
"; 	c #BB99D4",
"> 	c #9578AA",
", 	c #94889D",
"' 	c #878787",
") 	c #927083",
"! 	c #83141A",
"~ 	c #190203",
"{ 	c #BC81B2",
"] 	c #B386BB",
"^ 	c #BC98D4",
"/ 	c #BB98D5",
"( 	c #AE8DC8",
"_ 	c #AF8CC8",
": 	c #BF85B6",
"< 	c #998DA2",
"[ 	c #8E7778",
"} 	c #AF354D",
"| 	c #BD131B",
"1 	c #BD82B3",
"2 	c #C186B8",
"3 	c #BA4158",
"4 	c #C086B7",
"5 	c #B495C9",
"6 	c #BD435C",
"7 	c #B18FCA",
"8 	c #92899A",
"9 	c #BC86BB",
"0 	c #996497",
"a 	c #9C7DB6",
"b 	c #AF90CA",
"c 	c #BB9AD5",
"d 	c #BB95D0",
"e 	c #9F81B9",
"f 	c #9173A5",
"g 	c #BD121A",
"h 	c #BB9CD6",
"i 	c #BC95CA",
"j 	c #B08DC8",
"k 	c #9D699C",
"l 	c #B1374F",
"m 	c #BE334A",
"n 	c #BD3C53",
"o 	c #2C2734",
"p 	c #B796D3",
"q 	c #B794D1",
"r 	c #A88CC5",
"s 	c #B99CD6",
"t 	c #BB9BD7",
"u 	c #B898D4",
"v 	c #A689C1",
"w 	c #BA9CD6",
"x 	c #BE8CBF",
"y 	c #BC91CA",
"z 	c #B93F58",
"A 	c #B795D2",
"B 	c #BA9CD5",
"C 	c #BA99D5",
"D 	c #A485BE",
"E 	c #BA96D4",
"F 	c #BA95D4",
"G 	c #B792D1",
"H 	c #BE5A73",
"I 	c #4E445B",
"J 	c #A484BB",
"K 	c #9C7CB5",
"L 	c #A989C1",
"M 	c #B895D2",
"N 	c #BA9AD4",
"O 	c #BA9CD4",
"P 	c #B897D2",
"Q 	c #BA9AD5",
"R 	c #B091CC",
"S 	c #B794D0",
"T 	c #BB87BB",
"U 	c #B995D4",
"V 	c #BB96D5",
"W 	c #B32F47",
"X 	c #B83E57",
"Y 	c #BB97D5",
"Z 	c #BC415B",
"` 	c #B07CB1",
" .	c #E89296",
"..	c #990030",
"+.	c #BA97D5",
"@.	c #B797D2",
"#.	c #BB99D6",
"$.	c #4E4E4E",
"%.	c #2C2C2C",
"&.	c #A285BD",
"*.	c #BC97D6",
"=.	c #301C23",
"-.	c #6A6A6A",
";.	c #5A5A5A",
">.	c #B895D1",
",.	c #BB97D3",
"'.	c #BB97D4",
").	c #9D9D9D",
"!.	c #676767",
"~.	c #988AA0",
"{.	c #B693CF",
"].	c #B08DCA",
"^.	c #A071A4",
"/.	c #C7637D",
"(.	c #ADADAD",
"_.	c #A8A8A8",
":.	c #929292",
"<.	c #8D8D8D",
"[.	c #84788C",
"}.	c #9B96A0",
"|.	c #8D789A",
"1.	c #BF88BA",
"2.	c #B28DC6",
"3.	c #9C82AE",
"4.	c #B4B4B4",
"5.	c #B3B3B3",
"6.	c #AFAFAF",
"7.	c #848484",
"8.	c #7E7C7F",
"9.	c #786F7E",
"0.	c #A297AB",
"a.	c #BE90C5",
"b.	c #B890CB",
"c.	c #C96F8D",
"d.	c #D64D56",
"e.	c #ACACAC",
"f.	c #8A8A8A",
"g.	c #757178",
"h.	c #7D7D7D",
"i.	c #939393",
"j.	c #3D2C48",
"k.	c #858585",
"l.	c #5F5A62",
"m.	c #7A7480",
"n.	c #958F98",
"o.	c #AE92C0",
"p.	c #B18BC4",
"q.	c #BC85B7",
"r.	c #CC6882",
"s.	c #A48FB1",
"t.	c #A2A2A2",
"u.	c #9B9B9B",
"v.	c #909090",
"w.	c #919191",
"x.	c #3F2E4A",
"y.	c #7E7E7E",
"z.	c #837F85",
"A.	c #98929D",
"B.	c #9F8DAC",
"C.	c #8F75A1",
"D.	c #987AAC",
"E.	c #8C8C8C",
"F.	c #726E75",
"G.	c #483753",
"H.	c #2C123D",
"I.	c #545454",
"J.	c #41304C",
"K.	c #717171",
"L.	c #7A797B",
"M.	c #9F9BA2",
"N.	c #A49EA9",
"O.	c #9B8BA6",
"P.	c #C088BA",
"Q.	c #9C6C9F",
"R.	c #ABABAB",
"S.	c #A6A6A6",
"T.	c #686868",
"U.	c #7C7C7C",
"V.	c #777777",
"W.	c #969696",
"X.	c #808080",
"Y.	c #8F8B93",
"Z.	c #9D989F",
"`.	c #A294A5",
" +	c #BD91C5",
".+	c #BF8EC3",
"++	c #9C7AB5",
"@+	c #A089AF",
"#+	c #BC7083",
"$+	c #AEAEAE",
"%+	c #A8A4AB",
"&+	c #6E6E6E",
"*+	c #E0E0E0",
"=+	c #464646",
"-+	c #574662",
";+	c #8E8E8E",
">+	c #9E9E9E",
",+	c #9A94A0",
"'+	c #B2A6BA",
")+	c #BA91B7",
"!+	c #A574A1",
"~+	c #A986C1",
"{+	c #B18EC9",
"]+	c #A789BD",
"^+	c #C06279",
"/+	c #AF6376",
"(+	c #B65F75",
"_+	c #AA9EB1",
":+	c #8C888F",
"<+	c #BDBDBD",
"[+	c #6F6F6F",
"}+	c #423E45",
"|+	c #969299",
"1+	c #837F86",
"2+	c #584763",
"3+	c #817D84",
"4+	c #9B969F",
"5+	c #A192A5",
"6+	c #AD9EB8",
"7+	c #866F95",
"8+	c #846698",
"9+	c #B39BC2",
"0+	c #BF95C3",
"a+	c #BD88B8",
"b+	c #A98FBC",
"c+	c #9E586F",
"d+	c #B07E8A",
"e+	c #A28DB1",
"f+	c #A27EA5",
"g+	c #9882A8",
"h+	c #533D61",
"i+	c #5F5F5F",
"j+	c #7F7B82",
"k+	c #7E7683",
"l+	c #606060",
"m+	c #604F6B",
"n+	c #C6C6C6",
"o+	c #D0CCD3",
"p+	c #989898",
"q+	c #838383",
"r+	c #5B4A66",
"s+	c #9E9AA1",
"t+	c #A5A5A5",
"u+	c #A49BAA",
"v+	c #4C3958",
"w+	c #B590BC",
"x+	c #9B7AA3",
"y+	c #7B678A",
"z+	c #928797",
"A+	c #9F91A7",
"B+	c #5A4568",
"C+	c #A490B2",
"D+	c #8E799D",
"E+	c #8A7996",
"F+	c #837B88",
"G+	c #908D92",
"H+	c #949295",
"I+	c #4F4F4F",
"J+	c #B5B5B5",
"K+	c #595959",
"L+	c #A1A1A1",
"M+	c #34233F",
"N+	c #FFFFFF",
"O+	c #5D5D5D",
"P+	c #DBDBDB",
"Q+	c #443150",
"R+	c #42314D",
"S+	c #696969",
"T+	c #ADA9AE",
"U+	c #4D3A58",
"V+	c #ADACAE",
"W+	c #C0C0C0",
"X+	c #9C90A4",
"Y+	c #9A999B",
"Z+	c #B4B3B4",
"`+	c #4D3B58",
" @	c #78747B",
".@	c #C4C3C4",
"+@	c #4A464D",
"@@	c #7B7B7B",
"#@	c #6D6D6D",
"$@	c #5E5E5E",
"%@	c #362541",
"&@	c #97939A",
"*@	c #473652",
"=@	c #79757C",
"-@	c #493854",
";@	c #4B3A56",
">@	c #999999",
",@	c #737373",
"'@	c #747474",
")@	c #4A3955",
"!@	c #D9D9D9",
"~@	c #797979",
"{@	c #9F9F9F",
"]@	c #443250",
"^@	c #C3BFC6",
"/@	c #7F7F7F",
"(@	c #9C989F",
"_@	c #4B3858",
":@	c #E8E8E8",
"<@	c #8F8F8F",
"[@	c #4A3756",
"}@	c #99959C",
"|@	c #787878",
"1@	c #4A3857",
"2@	c #4B3857",
"3@	c #4D3C58",
"4@	c #4B4B4B",
"5@	c #372443",
"6@	c #372642",
"7@	c #4C3B57",
"8@	c #949494",
"9@	c #594864",
"0@	c #9B979E",
"a@	c #656565",
"b@	c #757575",
"c@	c #888888",
"d@	c #43304F",
"e@	c #B2B2B2",
"f@	c #544160",
"g@	c #554460",
"h@	c #4E3D59",
"i@	c #656168",
"j@	c #D6D6D6",
"k@	c #352440",
"l@	c #BABABA",
"m@	c #E5E5E5",
"n@	c #B5B1B8",
"o@	c #D8D8D8",
"p@	c #868686",
"q@	c #B7B7B7",
"r@	c #AAA6AD",
"s@	c #828282",
"t@	c #7A7A7A",
"u@	c #494949",
"v@	c #525252",
"w@	c #DADADA",
"x@	c #DEDEDE",
"y@	c #A7A7A7",
"z@	c #AAAAAA",
"A@	c #A9A9A9",
"B@	c #6B6B6B",
"                                                                                                                                ",
"                                                                                                                                ",
"                                                                                                                                ",
"                                                                                                                                ",
"                                                                                                                                ",
"                                                                                                                                ",
"                                                                                                                                ",
"                                                                                                                                ",
"                                                                                                                                ",
"                                                                                                                                ",
"                                                                                                                                ",
"                                                      . . . + . . . . @                                                         ",
"                                                . . . . . . . . + . . . . @ .                                                   ",
"                                            . . . . . # # $ % $ & # $ * . @ @ . .                                               ",
"                                          . . . $ = $ $ $ $ # $ % $ # $ $ * # . . .                                             ",
"                                      . . . $ $ # # # = - # ; > % , # ' $ $ ) $ # ! . ~                                         ",
"                                    . . + $ = $ $ { # ] = ^ / ^ * $ ' ' ' $ % $ # # . ! .                                       ",
"                                  . . . $ # # $ ( $ _ : ^ ^ / / < ' ' ' ' [ # } % | $ + ! .                                     ",
"                                . + . $ % = # 1 $ ^ % ^ 2 ^ ^ ^ ^ ^ ' ' ' $ 3 $ | | | % . . .                                   ",
"                                . . $ $ # $ 4 $ ^ ^ ^ ^ ; ^ ^ ^ ^ 5 ^ ' $ ; 6 | | | | | % . .                                   ",
"                              . + $ % $ ^ % { ^ ^ ^ ^ ^ ^ ^ 7 ; ^ ^ $ 8 < < / 9 | | | $ 0 $ . .                                 ",
"                            . . a b $ c c c c ^ ^ ^ ^ % d $ e # < * $ f % ; / 9 ^ g ^ ^ $ } $ . .                               ",
"                            . . a b h h ^ c c i c ^ $ # j : - $ j % % $ k $ ^ l ^ m n } # $ $ . .                               ",
"                          o o $ p q r s t t u v w x y { ^ % % _ # $ # $ $ % z z ( n $ $ $ % $ $ . .                             ",
"                          o o a q A B C D u E F G ( $ ^ ^ ^ $ $ $ # $ 0 $ } $ | $ $ } $ H q % $ $ . .                           ",
"                          I J q / ^ / B C / / G G F ^ ^ ^ ^ ^ % $ K # % } ^ | | | $ $ - $ # . . . . .                           ",
"                        o L / ; ^ / / B B B / ^ # $ $ ^ ^ ^ $ # $ % % $ 6 | | | | | $ $ . . . . . . .                           ",
"                        o M / ^ N ^ ^ / / O O ; ^ $ K # ^ % $ ^ % $ - ^ ^ ^ | | | $ 0 . . . . . . . . .                         ",
"                        . P ; / Q N ; / / / O O R a # # S % / ^ ^ $ $ $ ^ T ^ | # $ . . . . . . . . . .                         ",
"                        . J / Q ^ / ^ ^ / / / U G F V $ ( ^ ; ^ ^ ^ $ # $ ^ $ W } X . . . . . . . . . .                         ",
"                        . . q Q Q C / / ^ ^ Y Y Y $ $ % $ $ ^ ^ ; $ K $ } Z % ` # $ . . . .  .. ... ...                         ",
"                        . J C G / / / ^ ^ ^ ^ ^ ^ ^ $ # $ # % ^ # # % - $ # $ % $ $ . . . . . . ... ...                         ",
"                        . J +.C / / / ^ ^ ^ ^ ^ ^ ^ ^ $ $ $ $ j - ( $ % $ ^ $ $ % $ $ + . . . . . . . .                         ",
"                        . J G $ a @.^ ^ ^ ^ ^ #.; ^ # # - % ^ # $ % % $ ^ ^ ^ $ $ $ $ . + . . . . . . .                         ",
"                        $.%.G U % D &.; ^ ^ # G *.% # % % ^ ^ ^ $ $ % ^ ^ ^ ^ ^ $ $ $ % + + =.. . . .                           ",
"                          -.;.$ G G $ >.,.'.U % j % % % ; ^ ^ ^ ; $ $ $ ^ ^ ^ $ # $ $ $ % $ . =.. + .                           ",
"                          ).!.~.{.+.U ].a ( % # # $ % $ # ; ^ ^ $ # # # $ ^ $ $ $ % % ^ ^.% /.^.^..                             ",
"                    (._.  :.<.[.}.|.% $ ^ ^ ^ $ $ $ $ $ 1.= ^ % { # 2.= # j % - $ H $ $ $ $ $ 3.%..                             ",
"                  4.5.4.6.  (.7.8.9.0.^ ^ ^ a.^ : $ ^ $ $ : j _ % ( y b.# c.$ d.% $ H $ $ $ 3.%.%.                              ",
"                5.e.5.f.g.h.i.j.k.l.m.n.o.^ ^ : # ^ ^ ^ p.% q.^ ^ $ - { r.^ d.d.d.$ $ $ 3.3.s.t.u.                              ",
"                  5.v.w.h.h.h.:.$.x.y.z.A.B.C.: ^ ^ ^ ^ ^ { ; ^ ^ ^ / ^ r.d.d.d.d.d.$ 3.3.D.).t.                                ",
"                    E.F.y.G.h.H.7.I.J.K.L.M.N.O.$ ^ ^ ^ % P.^ ^ ^ ^ ^ ^ ^ ^ d.d.d.$ Q.s.3.6.R.S.5.T.                            ",
"                    4.4.G.h.H.H.H.U.V.).W.X.Y.Z.`.D.^ $ $ $ 2 ^ ^ ^ ^  +^ .+$ d.$ ++@+#+R.e.$+%+&+*+=+                          ",
"                      t.-+H.H.H.H.H.U.h.;+>+t.;+,+'+)+: !+# = ^ ^ ^ ~+^ { {+]+^+/+(+_+:+w.<+f.4.[+}+=+=+=+=+4.4.                ",
"                      4.7.U.H.H.H.h.|+1+h.h.2+e.3+4+5+6+7+f 8+9+0+: a+b+c+d+e+f+g+h+i+j+k+(.l+m+n+o+}+=+=+' S.                  ",
"                    R.p+q+F.h.H.h.h.h.G.h.h.U.5.r+s+t+u+v+w+x+y+z+A+B+C+D+E+F+G+H+h.X.m+I+4.J+K+L+M+N+=+O+5.4.                  ",
"                        P+u.h.Q+G.G.F.h.G.h.H.h.v.R+f.<+S+T+U+V+W+X+Y+Z+`+ @.@-+q+H.J++@r+r+4.H.=+=+M+@@#@#@                    ",
"                      $@%@j.i.F.h.h.h.G.h.H.H.H.&@4.*@k.H.h.=@-@;@>@H.<.,@-+G.'@H.H.H.4.r+4.H.H.H.=+=+=+5.                      ",
"                          $.I.h.h.h.h.G.H.H.H.H.H.)@4.H.H.H.P+r+' H.H.H.!@h.G.H.H.H.H.H.r+H.H.H.H.H.=+J+                        ",
"                          y.~@  {@h.h.h.h.H.H.H.h.]@H.H.H.H.H.r+H.H.H.H.H.h.h.h.H.H.H.I.}+4.H.H.H.E.^@                          ",
"                            7.V.S.t+X.h.F./@H.h.h.h.G.H.H.H.4.(@5.H.H.H.4.F.h.F.$@H.=+=+=+_@E.H.:@l+I.R+                        ",
"                              X.U./@t+S.<.<@[@G.G.h.}@|@H.' 4.4.1@#@H.4.(.=+G.N+E.2@)@3@=+I.4@5@6@7@                            ",
"                                    8@r+9@J+0@a@h.b@[+c@d@)@;@4.8@e@f@r+M+=+g@h@X.i@j@=+k@%@$.                                  ",
"                                      l@#@K.    V.)@-@m@n@o@p@-+2+q@r@p+s@).7.c@t@I+4@u@v@                                      ",
"                                          R.f.' w@x@' t+y@R.u.<@z@A@~@;+[+B@&+N+                                                ",
"                                                        ' c@' c@                                                                ",
"                                                                                                                                ",
"                                                                                                                                ",
"                                                                                                                                ",
"                                                                                                                                ",
"                                                                                                                                ",
"                                                                                                                                ",
"                                                                                                                                ",
"                                                                                                                                "};
