/* XPM */
static char * enemy_left_4_xpm[] = {
"64 64 309 2",
"  	c #FF00FF",
". 	c #111111",
"+ 	c #000000",
"@ 	c #18151C",
"# 	c #8B7F93",
"$ 	c #9471AB",
"% 	c #9877B0",
"& 	c #987DAE",
"* 	c #AD8AC6",
"= 	c #9F73A6",
"- 	c #190203",
"; 	c #83141A",
"> 	c #927083",
", 	c #878787",
"' 	c #94889D",
") 	c #9578AA",
"! 	c #BB99D4",
"~ 	c #B693D0",
"{ 	c #BC98D4",
"] 	c #BB98D5",
"^ 	c #B386BB",
"/ 	c #BC81B2",
"( 	c #BD131B",
"_ 	c #AF354D",
": 	c #8E7778",
"< 	c #998DA2",
"[ 	c #BF85B6",
"} 	c #AF8CC8",
"| 	c #AE8DC8",
"1 	c #BA4158",
"2 	c #C186B8",
"3 	c #BD82B3",
"4 	c #BD435C",
"5 	c #B495C9",
"6 	c #C086B7",
"7 	c #996497",
"8 	c #BC86BB",
"9 	c #92899A",
"0 	c #B18FCA",
"a 	c #BD121A",
"b 	c #9173A5",
"c 	c #9F81B9",
"d 	c #BB95D0",
"e 	c #BB9AD5",
"f 	c #AF90CA",
"g 	c #9C7DB6",
"h 	c #BD3C53",
"i 	c #BE334A",
"j 	c #B1374F",
"k 	c #9D699C",
"l 	c #B08DC8",
"m 	c #BC95CA",
"n 	c #BB9CD6",
"o 	c #B93F58",
"p 	c #BC91CA",
"q 	c #BE8CBF",
"r 	c #BA9CD6",
"s 	c #A689C1",
"t 	c #B898D4",
"u 	c #BB9BD7",
"v 	c #B99CD6",
"w 	c #A88CC5",
"x 	c #B794D1",
"y 	c #B796D3",
"z 	c #2C2734",
"A 	c #BE5A73",
"B 	c #B792D1",
"C 	c #BA95D4",
"D 	c #BA96D4",
"E 	c #A485BE",
"F 	c #BA99D5",
"G 	c #BA9CD5",
"H 	c #B795D2",
"I 	c #9C7CB5",
"J 	c #A484BB",
"K 	c #4E445B",
"L 	c #A989C1",
"M 	c #990030",
"N 	c #E89296",
"O 	c #BA9CD4",
"P 	c #BA9AD4",
"Q 	c #B895D2",
"R 	c #7B0D11",
"S 	c #BB87BB",
"T 	c #B794D0",
"U 	c #B091CC",
"V 	c #BA9AD5",
"W 	c #B897D2",
"X 	c #B83E57",
"Y 	c #B32F47",
"Z 	c #BB96D5",
"` 	c #B995D4",
" .	c #B07CB1",
"..	c #BC415B",
"+.	c #BB97D5",
"@.	c #BA97D5",
"#.	c #BB99D6",
"$.	c #B797D2",
"%.	c #301C23",
"&.	c #BC97D6",
"*.	c #A285BD",
"=.	c #2C2C2C",
"-.	c #4E4E4E",
";.	c #BB97D4",
">.	c #BB97D3",
",.	c #B895D1",
"'.	c #5A5A5A",
").	c #6A6A6A",
"!.	c #A071A4",
"~.	c #C7637D",
"{.	c #B08DCA",
"].	c #B693CF",
"^.	c #988AA0",
"/.	c #676767",
"(.	c #9D9D9D",
"_.	c #9C82AE",
":.	c #B28DC6",
"<.	c #BF88BA",
"[.	c #8D789A",
"}.	c #9B96A0",
"|.	c #84788C",
"1.	c #8D8D8D",
"2.	c #929292",
"3.	c #A8A8A8",
"4.	c #ADADAD",
"5.	c #D64D56",
"6.	c #C96F8D",
"7.	c #B890CB",
"8.	c #BE90C5",
"9.	c #A297AB",
"0.	c #786F7E",
"a.	c #7E7C7F",
"b.	c #848484",
"c.	c #AFAFAF",
"d.	c #B4B4B4",
"e.	c #B3B3B3",
"f.	c #9B9B9B",
"g.	c #A2A2A2",
"h.	c #A48FB1",
"i.	c #CC6882",
"j.	c #BC85B7",
"k.	c #B18BC4",
"l.	c #AE92C0",
"m.	c #958F98",
"n.	c #7A7480",
"o.	c #5F5A62",
"p.	c #858585",
"q.	c #3D2C48",
"r.	c #939393",
"s.	c #7D7D7D",
"t.	c #757178",
"u.	c #8A8A8A",
"v.	c #ACACAC",
"w.	c #987AAC",
"x.	c #8F75A1",
"y.	c #9F8DAC",
"z.	c #98929D",
"A.	c #837F85",
"B.	c #7E7E7E",
"C.	c #3F2E4A",
"D.	c #919191",
"E.	c #909090",
"F.	c #686868",
"G.	c #A6A6A6",
"H.	c #ABABAB",
"I.	c #9C6C9F",
"J.	c #C088BA",
"K.	c #9B8BA6",
"L.	c #A49EA9",
"M.	c #9F9BA2",
"N.	c #7A797B",
"O.	c #717171",
"P.	c #41304C",
"Q.	c #545454",
"R.	c #2C123D",
"S.	c #483753",
"T.	c #726E75",
"U.	c #8C8C8C",
"V.	c #464646",
"W.	c #E0E0E0",
"X.	c #6E6E6E",
"Y.	c #BBBBBB",
"Z.	c #AEAEAE",
"`.	c #BC7083",
" +	c #A089AF",
".+	c #BF8EC3",
"++	c #BD91C5",
"@+	c #A294A5",
"#+	c #9D989F",
"$+	c #9E9E9F",
"%+	c #808080",
"&+	c #969696",
"*+	c #777777",
"=+	c #7C7C7C",
"-+	c #6F6F6F",
";+	c #BDBDBD",
">+	c #9A9A9A",
",+	c #AA9EB1",
"'+	c #B65F75",
")+	c #AF6376",
"!+	c #C06279",
"~+	c #A789BD",
"{+	c #B18EC9",
"]+	c #B784AF",
"^+	c #BA91B7",
"/+	c #B2A6BA",
"(+	c #ABA8AE",
"_+	c #8E8E8E",
":+	c #9E9E9E",
"<+	c #574662",
"[+	c #E8E8E8",
"}+	c #C6C6C6",
"|+	c #C1C1C1",
"1+	c #606060",
"2+	c #989898",
"3+	c #8B8B8B",
"4+	c #5F5F5F",
"5+	c #9D8FA5",
"6+	c #9882A8",
"7+	c #A27EA5",
"8+	c #B4A0C2",
"9+	c #B07E8A",
"0+	c #A98FBC",
"a+	c #BD88B8",
"b+	c #BF95C3",
"c+	c #B39BC2",
"d+	c #866F95",
"e+	c #AD9EB8",
"f+	c #A192A5",
"g+	c #ACABAD",
"h+	c #A9A9A9",
"i+	c #969299",
"j+	c #5D5D5D",
"k+	c #FFFFFF",
"l+	c #A1A1A1",
"m+	c #595959",
"n+	c #B5B5B5",
"o+	c #4F4F4F",
"p+	c #C0C0C0",
"q+	c #949295",
"r+	c #908D92",
"s+	c #837B88",
"t+	c #9889A2",
"u+	c #9D89AB",
"v+	c #A490B2",
"w+	c #B0A5B8",
"x+	c #9F91A7",
"y+	c #928797",
"z+	c #9584A1",
"A+	c #AC8AB1",
"B+	c #B590BC",
"C+	c #88848C",
"D+	c #A49BAA",
"E+	c #A5A5A5",
"F+	c #838383",
"G+	c #6D6D6D",
"H+	c #7B7B7B",
"I+	c #888888",
"J+	c #C4C3C4",
"K+	c #8A888B",
"L+	c #B4B3B4",
"M+	c #9A999B",
"N+	c #9C90A4",
"O+	c #ADACAE",
"P+	c #8A868C",
"Q+	c #ADA9AE",
"R+	c #696969",
"S+	c #443150",
"T+	c #DBDBDB",
"U+	c #828282",
"V+	c #747474",
"W+	c #737373",
"X+	c #B8B8B8",
"Y+	c #999999",
"Z+	c #818181",
"`+	c #797979",
" @	c #A7A7A7",
".@	c #362541",
"+@	c #5E5E5E",
"@@	c #4A4A4A",
"#@	c #7A7A7A",
"$@	c #D9D9D9",
"%@	c #AAAAAA",
"&@	c #DADADA",
"*@	c #565656",
"=@	c #7F7F7F",
"-@	c #9F9F9F",
";@	c #B6B6B6",
">@	c #949494",
",@	c #4D4D4D",
"'@	c #505050",
")@	c #4B4B4B",
"!@	c #787878",
"~@	c #8F8F8F",
"{@	c #494949",
"]@	c #D6D6D6",
"^@	c #A3A3A3",
"/@	c #B2B2B2",
"(@	c #757575",
"_@	c #656565",
":@	c #525252",
"<@	c #B7B7B7",
"[@	c #868686",
"}@	c #D8D8D8",
"|@	c #C9C9C9",
"1@	c #E5E5E5",
"2@	c #BABABA",
"3@	c #6B6B6B",
"4@	c #DEDEDE",
"                                                                                                                                ",
"                                                                                                                                ",
"                                                                                                                                ",
"                                                                                                                                ",
"                                                                                                                                ",
"                                                                                                                                ",
"                                                                                                                                ",
"                                                                                                                                ",
"                                                                                                                                ",
"                                                                                                                                ",
"                                                                                                                                ",
"                                                        . + + + + @ + + +                                                       ",
"                                                  + . + + + + @ + + + + + + + +                                                 ",
"                                              + + . . + # $ % & $ * $ % % + + + + +                                             ",
"                                            + + + % # $ $ % $ * $ % $ $ $ $ = $ + + +                                           ",
"                                        - + ; % $ > $ $ , % ' * ) ! % ~ = % % % $ $ + + +                                       ",
"                                      + ; + % % $ * $ , , , $ # { ] { = ^ % / $ $ = $ @ + +                                     ",
"                                    + ; @ $ ( * _ % : , , , , < ] ] { { [ } $ | $ % % $ + + +                                   ",
"                                  + + + * ( ( ( $ 1 $ , , , { { { { { 2 { * { $ 3 % = * $ + @ +                                 ",
"                                  + + * ( ( ( ( ( 4 ! $ , { 5 { { { { ! { { { { $ 6 $ % $ $ + +                                 ",
"                                + + $ 7 $ ( ( ( 8 ] < < 9 $ { { ! 0 { { { { { { { / * { $ * $ @ +                               ",
"                              + + $ _ $ { { a { 8 ] ! * b $ # < % c $ d * { { { { e e e e $ f g + +                             ",
"                              + + $ $ % _ h i { j { $ k $ * * l $ ~ [ l % $ { e m e e { n n f g + +                             ",
"                            + + $ $ * $ $ $ h | o o * $ $ % $ % } * * { / p q r s t u u v w x y $ z z                           ",
"                          + + $ $ * x A $ _ $ $ ( $ _ $ 7 $ % $ $ $ { { { $ | B C D t E F G H x g z z                           ",
"                          + + + + + % $ ~ $ $ ( ( ( { _ * % I $ * { { { { { C B B ] ] F G ] { ] x J K                           ",
"                          + + + + + + + $ $ ( ( ( ( ( 4 $ * * $ % $ { { { $ $ % { ] G G G ] ] { ! ] L z                         ",
"                        + + M M + N + + + 7 $ ( ( ( { { { ~ $ * { $ * { % I $ { ! O O ] ] { { P { ] Q z                         ",
"                        + + + M + N N + R + $ % ( { S { $ $ $ { { ] * T % % g U O O ] ] ] ! P V ] ! W +                         ",
"                        + + + M + N N N + + X _ Y $ { $ % $ { { { ! { | $ Z C B ` ] ] ] { { ] { V ] J +                         ",
"                        + M + M + N N N + + $ %  .* .._ $ I $ ! { { $ $ * $ $ +.+.+.{ { ] ] F V V x + +                         ",
"                        + M + M + N N + + + $ $ * $ % $ ~ * % % { * % $ % $ { { { { { { { ] ] ] B F J +                         ",
"                        + + M M + N + + @ $ $ * $ $ { $ * $ | ~ l $ $ $ $ { { { { { { { { ] ] ] F @.J +                         ",
"                        + + M M + + + @ + $ $ $ $ { { { $ * * $ % { * ~ % % { ! #.{ { { { { $.g $ B J +                         ",
"                          + + + + %.@ @ * $ $ $ { { { { { * $ $ { { { * * % * &.B % { { ! *.E * ` B =.-.                        ",
"                          + @ + %.+ $ * $ $ $ % $ { { { $ $ $ ! { { { ! * * * l * ` ;.>.,.$ B B $ '.).                          ",
"                            + !.!.~.* !.{ * * $ $ $ { $ % % % $ { { ! % $ * $ % % * | g {.` @.].^./.(.                          ",
"                            + =._.$ $ $ $ $ A $ ~ * l % = :.% / * { = <.$ $ $ $ $ { { { $ * [.}.|.1.2.  3.4.                    ",
"                              =.=._.$ $ $ A $ * 5.$ 6.% 7.p | * } l [ $ $ { $ [ { 8.{ { { 9.0.a.b.4.  c.d.e.d.                  ",
"                              f.g.h._._.$ $ $ 5.5.5.{ i./ ~ $ { { j.* k.{ { { % [ { { l.m.n.o.p.q.r.s.t.u.e.v.e.                ",
"                                g.(.w._._.$ 5.5.5.5.5.i.{ ] { { { ! / { { { { { [ x.y.z.A.B.C.-.2.s.s.s.D.E.e.                  ",
"                            F.e.G.H.c._.h.I.$ 5.5.5.{ { { { { { { { J.* { { { $ K.L.M.N.O.P.Q.b.R.s.S.B.T.U.                    ",
"                          V.W.X.Y.Z.v.H.`. +* $ 5.$ .+{ ++{ { { { 2 $ $ $ { w.@+#+$+%+&+(.*+=+R.R.R.s.S.d.d.                    ",
"                d.d.V.V.V.V.V.-+d.u.;+D.>+,+'+)+!+~+{+/ { { { { { = % ]+[ ^+/+(+_+g.:+_+s.=+R.R.R.R.R.<+g.                      ",
"                  G., V.V.V.[+}+|+1+4.2+3+4+5+6+7+8+9+)+0+a+[ b+c+b b d+e+f+g+_+v.h+s.s.E.i+s.R.R.R.=+b.d.                      ",
"                  d.e.j+V.k+V.l+m+n+d.o+p+%+s.q+r+s+t+u+v+w+x+y+z+A+B+C+D+E+c.e.e.=+s.s.S.s.s.s.R.s.T.F+2+H.                    ",
"                    G+G+H+V.V.V.I+d.d.d.o+n+g.F+G.J+F+K+L+M+N+p+O+P+Q+R+;+u.G+E.s.s.s.s.s.s.S.S.S+s.f.T+                        ",
"                      e.V.V.V.V.d.d.d.d.d.D.U+e.V+s.3.W+1.X+Y+, Z+p.s.s.p.`+d. @d.s.s.s.s.s.s.s.T.r.q..@+@                      ",
"                        n+V.V.Q.V.d.d.d.V.F.@@#@s.s.s.$@E.%@E+, d.T+s.s.s.d.b.s.d.s.s.s.s.s.s.s.s.Q.-.                          ",
"                          &@U.k+V.V.d.V.Q.V.*@s.s.s.s.s.E.d., c.d.s.s.s.s.s.s.s.s.=@s.s.s.s.s.-@  `+B.                          ",
"                          Q.1+[+;@U.>@V.V.V.,@+@s.s.s.d.d.d.d.e.4.d.s.s.s.s.s.s.s.s.=@s.s.%+E+G.*+b.                            ",
"                            I+-.'@)@Q.V.U.U+&+U.k+s.V.4.d.d.G+E.d.d., s.!@h+s.s.s.D.~@1.G.E+=@=+%+                              ",
"                                  -.)@{@V.]@X.%+~@^@V.V.d./@/@>@d., F+#@I+-+(@s._@v.n+Z.d.>@                                    ",
"                                      :@{@)@o+#@I+b.(.U+2+;+<@%@G.[@}@|@1@%+F+*+    O.G+2@                                      ",
"                                                k+X.3@-+_+`+h+%@~@f.H. @E+, 4@&@, u.H.                                          ",
"                                                                I+, I+,                                                         ",
"                                                                                                                                ",
"                                                                                                                                ",
"                                                                                                                                ",
"                                                                                                                                ",
"                                                                                                                                ",
"                                                                                                                                ",
"                                                                                                                                ",
"                                                                                                                                "};
