/* XPM */
static char * floor_xpm[] = {
"64 64 32 1",
" 	c #464646",
".	c #454545",
"+	c #424242",
"@	c #474747",
"#	c #484848",
"$	c #4B4B4B",
"%	c #444444",
"&	c #494949",
"*	c #3A3A3A",
"=	c #4C4C4C",
"-	c #030303",
";	c #000000",
">	c #020202",
",	c #4E4E4E",
"'	c #404040",
")	c #050505",
"!	c #010101",
"~	c #414141",
"{	c #4D4D4D",
"]	c #040404",
"^	c #3F3F3F",
"/	c #4A4A4A",
"(	c #434343",
"_	c #070707",
":	c #060606",
"<	c #3B3B3B",
"[	c #3E3E3E",
"}	c #B0B0B0",
"|	c #BEBEBE",
"1	c #B5B5B5",
"2	c #B2B2B2",
"3	c #B1B1B1",
" . +@#.@                                                @.#@+ . ",
".@$%&. %                                                % .&%$@.",
"%$*=-;;>;;;;;;;;;;;;;;;;;;;;;;;;;;;;;;;;;;;;;;;;;;;;;;;;>;;-=*$%",
"@%,%')!>;;;;;;;;;;;;;;;;;;;;;;;;;;;;;;;;;;;;;;;;;;;;;;;;>!)'%,%@",
"%~ . %%.@@@@@@@@@@@@@@@@@@@@@@@@@@@@@@@@@@@@@@@@@@@@@@@@.%% . ~%",
"@{;- #@;;;;;;;;;;;;;;;;;;;;;;;;;;;;;;;;;;;;;;;;;;;;;;;;;;@# -;{@",
"@+;-;&.#!!!!!!!!!!!!!!!!!!!!!!!!!!!!!!!!!!!!!!!!!!!!!!!!#.&;-;+@",
" # .@@%.                                                .%@@. # ",
"..;;-;-. .;!>!;;;!>;;;;-;;;;;;;;;;;;;;;;-;;;;>!;;;!>!;. .-;-;;..",
"@@-;;];-###;;;-;!;;-->;;;;;;;;;;;;;;;;;;;;>--;;!;-;;;###-;];;-@@",
"#^{@' /%.((# &  @## '(&(                (&(' ##@  & #((.%/ '@{^#",
"#(;);;!-!>/~#;;;;;;!;;-;;;;;;;;;;;;;;;;;;-;;!;;;;;;#~/>!-!;;);(#",
".&;;!!;;;;;#~/>!]>;;);;>;;;;;;;;;;;;;;;;>;;);;>]!>/~#;;;;;!!;;&.",
"(.&%.@$#  & #((.%@#~%@(#                #(@%~#@%.((# &  #$@.%&.(",
"  ;>;;;!;-;;;###-;]!;_!;;;;;;;;;;;;;;;;;;!_;!];-###;;;-;!;;;>;  ",
" .;>;>;;;;!>!;. %];-;!;>;;;;;;;;;;;;;;;;>;!;-;]% .;!>!;;;;>;>;. ",
"+$+## @@        % .+&$+@ ##(. (//( .(## @+$&+. %        @@ ##+$+",
"#/;;;;;;;;;;;;;;/  :;;-;!;;--!;;;;!--;;!;-;;:  /;;;;;;;;;;;;;;/#",
"/<_;;!-;!!!!!!!!;.+ ;;!!>--!;;];;];;!-->!!;; +.;!!!!!!!!;-!;;_</",
".&% .(           .#(=%@~~  @  /../  @  ~~@%=(#.           (. %&.",
"( >]--!>;;;;;;;;;]; ~%>:->;;);;>>;;);;>-:>%~ ;];;;;;;;;;>!--]> (",
"='>;;;;;!!!!!!!!;;>;$&~;;>>;;!;>>;!;;>>;;~&$;>;;!!!!!!!!;;;;;>'=",
"+ @&#.&&        @(#@~  @&[/@%{@  @{%@/[&@  ~@#(@        &&.#&@ +",
"#(!;;;;;;;;;;;;;;;;!;>(@%];-;!;--;!;-;]%@(>;!;;;;;;;;;;;;;;;;!(#",
"#(!;;;;;;;;;;;;;-;!;-;]%# ;>;>;>);;!-;..%];-;!;-;;;;;;;;;;;;;!(#",
"+ @&#.&&         @{%@/[&%@&  //%(%/~.&#@&[/@%{@         &&.#&@ +",
"='>;;;;;!!!!!!!!>;!;;>>;> +.);;;;);; +@;;>>;;!;>!!!!!!!!;;;;;>'=",
"( >]--!>;;;;;;;;>;;);;>-;!/@(!>>;;-#(&;>->;;);;>;;;;;;;;>!--]> (",
".&% .(          ./  @  ~/ /^@#+ /@(%/@@@~  @  /.          (. %&.",
"/<_;;!-;!!!!!!!!;];;!-->;;;: }|}%@ &;;;;>--!;;];!!!!!!!!;-!;;_</",
"#/;;;;;;;;;;;;;;;;!--;;!_;!;~12@&^@$;>>;!;;--!;;;;;;;;;;;;;;;;/#",
"+$+## @@        /( .(## (..%=3  (=++#..@ ##(. (/        @@ ##+$+",
"+$+## @@        /( .(## @..#++=((=++#..@ ##(. (/        @@ ##+$+",
"#/;;;;;;;;;;;;;;;;!--;;!;>>;$@^&&^@$;>>;!;;--!;;;;;;;;;;;;;;;;/#",
"/<_;;!-;!!!!!!!!;];;!-->;;;;& @%%@ &;;;;>--!;;];!!!!!!!!;-!;;_</",
".&% .(          ./  @  ~@@@/%(@//@(%/@@@~  @  /.          (. %&.",
"( >]--!>;;;;;;;;>;;);;>->;&(#-;;;;-#(&;>->;;);;>;;;;;;;;>!--]> (",
"='>;;;;;!!!!!!!!>;!;;>>;;@+ ;;);;);; +@;;>>;;!;>!!!!!!!!;;;;;>'=",
"+ @&#.&&         @{%@/[&@#&.~/%((%/~.&#@&[/@%{@         &&.#&@ +",
"#(!;;;;;;;;;;;;;-;!;-;]%..;-!;;));;!-;..%];-;!;-;;;;;;;;;;;;;!(#",
"#(!;;;;;;;;;;;;;;;;!;>(@%];-;!;--;!;-;]%@(>;!;;;;;;;;;;;;;;;;!(#",
"+ @&#.&&        @(#@~  @&[/@%{@  @{%@/[&@  ~@#(@        &&.#&@ +",
"='>;;;;;!!!!!!!!;;>;$&~;;>>;;!;>>;!;;>>;;~&$;>;;!!!!!!!!;;;;;>'=",
"( >]--!>;;;;;;;;;]; ~%>:->;;);;>>;;);;>-:>%~ ;];;;;;;;;;>!--]> (",
".&% .(           .#(=%@~~  @  /../  @  ~~@%=(#.           (. %&.",
"/<_;;!-;!!!!!!!!;.+ ;;!!>--!;;];;];;!-->!!;; +.;!!!!!!!!;-!;;_</",
"#/;;;;;;;;;;;;;;/  :;;-;!;;--!;;;;!--;;!;-;;:  /;;;;;;;;;;;;;;/#",
"+$+## @@        % .+&$+@ ##(. (//( .(## @+$&+. %        @@ ##+$+",
" .;>;>;;;;!>!;. %];-;!;>;;;;;;;;;;;;;;;;>;!;-;]% .;!>!;;;;>;>;. ",
"  ;>;;;!;-;;;###-;]!;_!;;;;;;;;;;;;;;;;;;!_;!];-###;;;-;!;;;>;  ",
"(.&%.@$#  & #((.%@#~%@(#                #(@%~#@%.((# &  #$@.%&.(",
".&;;!!;;;;;#~/>!]>;;);;>;;;;;;;;;;;;;;;;>;;);;>]!>/~#;;;;;!!;;&.",
"#(;);;!-!>/~#;;;;;;!;;-;;;;;;;;;;;;;;;;;;-;;!;;;;;;#~/>!-!;;);(#",
"#^{@' /%.((# &  @## '(&(                (&(' ##@  & #((.%/ '@{^#",
"@@-;;];-###;;;-;!;;-->;;;;;;;;;;;;;;;;;;;;>--;;!;-;;;###-;];;-@@",
"..;;-;-. .;!>!;;;!>;;;;-;;;;;;;;;;;;;;;;-;;;;>!;;;!>!;. .-;-;;..",
" # .@@%.                                                .%@@. # ",
"@+;-;&.#!!!!!!!!!!!!!!!!!!!!!!!!!!!!!!!!!!!!!!!!!!!!!!!!#.&;-;+@",
"@{;- #@;;;;;;;;;;;;;;;;;;;;;;;;;;;;;;;;;;;;;;;;;;;;;;;;;;@# -;{@",
"%~ . %%.@@@@@@@@@@@@@@@@@@@@@@@@@@@@@@@@@@@@@@@@@@@@@@@@.%% . ~%",
"@%,%')!>;;;;;;;;;;;;;;;;;;;;;;;;;;;;;;;;;;;;;;;;;;;;;;;;>!)'%,%@",
"%$*=-;;>;;;;;;;;;;;;;;;;;;;;;;;;;;;;;;;;;;;;;;;;;;;;;;;;>;;-=*$%",
".@$%&. %                                                % .&%$@.",
" . +@#.@                                                @.#@+ . "};
