/* XPM */
static char * door_4_xpm[] = {
"64 64 14 1",
" 	c #FF00FF",
".	c #464646",
"+	c #000000",
"@	c #7D7D7D",
"#	c #4EB3F2",
"$	c #99D9EA",
"%	c #2F3699",
"&	c #5C9DD5",
"*	c #58B7F2",
"=	c #964C67",
"-	c #A75565",
";	c #BD131B",
">	c #7ECBED",
",	c #9EBFCE",
"........+                                             +.........",
"........+                                             +.........",
"........+                                             +.........",
"+++++++++                                             ++++++++++",
"+++++++++                                             ++++++++++",
"@@@@@@@@+                                             +@@@@@@@@@",
"@@@@@@@@+                                             +@@@@@@@@@",
"@@@@@@@@+                                             +@@@@@@@@@",
"@@@@@@@@+                                             +@@@@@@@@@",
".@@@@@@@+                                             +@@@@@@@..",
"..@@@@@@+                                             +@@@@@@..+",
"+..@@@@@+                                             +@@@@@..+%",
"$+..@@@@+                                             +@@@@..+%#",
"$$+.@@@@+                                             +@@@@.+%##",
"$$+.@@@@+                                             +@@@@.+%##",
"$$+.@@@@+                                             +@@@@.+%##",
"$$+.@@@@+                                             +@@@@.+%##",
"#$+.@@@@+                                             +@@@@.+%##",
"#$+.@@@@+                                             +@@@@.+%##",
"#$+.@@@@+                                             +@@@@.+%##",
"#$+.@@@@+                                             +@@@@.+%##",
"#$+.@@@@+                                             +@@@@.+%##",
"#$+.@@@@+                                             +@@@@.+%##",
"#$+.@@@@+                                             +@@@@.+%##",
"#$+.@@@@+                                             +@@@@.+%##",
"#$+.@@@@+                                             +@@@@.+%##",
"#$+.@@@@+                                             +@@@@.+%##",
"#$+.@@@@+                                             +@@@@.+%##",
"#$+.@@@@+                                             +@@@@.+%##",
"#$+.@@@@+                                             +@@@@.+%##",
"#$+.@@@@+                                             +@@@@.+%##",
"#$+.@@@@+                                             +@@@@.+%##",
"#$+.@@@@+                                             +@@@@.+%##",
"#$+.@@@@+                                             +@@@@.+%##",
"#$+.@@@@+                                             +@@@@.+%##",
"#$+.@@@@+                                             +@@@@.+%##",
"#$+.@@@@+                                             +@@@@.+%##",
"#$+.@@@@+                                             +@@@@.+%##",
"#$+.@@@@+                                             +@@@@.+%##",
"#$+.@@@@+                                             +@@@@.+%##",
"#$+.@@@@+                                             +@@@@.+%##",
"#$+.@@@@+                                             +@@@@.+%##",
"#$+.@@@@+                                             +@@@@.+%##",
"#$+.@@@@+                                             +@@@@.+%##",
"#$+.@@@@+                                             +@@@@.+%##",
"#$+.@@@@+                                             +@@@@.+%##",
"$$+.@@@@+                                             +@@@@.+%##",
"$$+.@@@@+                                             +@@@@.+%##",
"$$+.@@@@+                                             +@@@@.+%##",
"$$+.@@@@+                                             +@@@@.+%##",
"$$+.@@@@+                                             +@@@@.+%##",
"$+..@@@@+                                             +@@@@..+%#",
"+..@@@@@+                                             +@@@@@..+%",
"..@@@@@@+                                             +@@@@@@..+",
".@@@@@@@+                                             +@@@@@@@..",
"@@@@@@@@+                                             +@@@@@@@@@",
"@@@@@@@@+                                             +@@@@@@@@@",
"@@@@@@@@+                                             +@@@@@@@@@",
"@@@@@@@@+                                             +@@@@@@@@@",
"+++++++++                                             ++++++++++",
"+++++++++                                             ++++++++++",
"........+                                             +.........",
"........+                                             +.........",
"........+                                             +........."};
