/* XPM */
static char * door_5_xpm[] = {
"64 64 6 1",
" 	c #FF00FF",
".	c #464646",
"+	c #000000",
"@	c #7D7D7D",
"#	c #99D9EA",
"$	c #2F3699",
"+                                                              +",
"+                                                              +",
"+                                                              +",
"+                                                              +",
"+                                                              +",
"+                                                              +",
"+                                                              +",
"+                                                              +",
"+                                                              +",
"+                                                              +",
"+                                                              +",
"+                                                              +",
"+                                                              +",
"+                                                              +",
"+                                                              +",
"+                                                              +",
"+                                                              +",
"+                                                              +",
"+                                                              +",
"+                                                              +",
"+                                                              +",
"+                                                              +",
"+                                                              +",
"+                                                              +",
"+                                                              +",
"+                                                              +",
"+                                                              +",
"+                                                              +",
"+                                                              +",
"+                                                              +",
"+                                                              +",
"+                                                              +",
"+                                                              +",
"+                                                              +",
"+                                                              +",
"+                                                              +",
"+                                                              +",
"+                                                              +",
"+                                                              +",
"+                                                              +",
"+                                                              +",
"+                                                              +",
"+                                                              +",
"+                                                              +",
"+                                                              +",
"+                                                              +",
"+                                                              +",
"+                                                              +",
"+                                                              +",
"+                                                              +",
"+                                                              +",
"+                                                              +",
"+                                                              +",
"+                                                              +",
"+                                                              +",
"+                                                              +",
"+                                                              +",
"+                                                              +",
"+                                                              +",
"+                                                              +",
"+                                                              +",
"+                                                              +",
"+                                                              +",
"+                                                              +"};
