/* XPM */
static char * door_1_xpm[] = {
"64 64 18 1",
" 	c #FF00FF",
".	c #464646",
"+	c #000000",
"@	c #7D7D7D",
"#	c #2F3699",
"$	c #4EB3F2",
"%	c #99D9EA",
"&	c #5C9DD5",
"*	c #58B7F2",
"=	c #964C67",
"-	c #9A4E67",
";	c #7ECBED",
">	c #BD131B",
",	c #A75565",
"'	c #9EBFCE",
")	c #9D415A",
"!	c #86B2D1",
"~	c #82CFED",
"...........................+        +...........................",
"...........................+        +...........................",
"...........................+        +...........................",
".+++++++++++++++++++++++++++        +++++++++++++++++++++++++++.",
"++++++++++++++++++++++++++++        ++++++++++++++++++++++++++++",
"++@@@@@@@@@@@@@@@@@@@@@@@@@+        +@@@@@@@@@@@@@@@@@@@@@@@@@++",
"+@@@@@@@@@@@@@@@@@@@@@@@@@@+        +@@@@@@@@@@@@@@@@@@@@@@@@@@+",
"+@@@@@@@@@@@@@@@@@@@@@@@@@@+        +@@@@@@@@@@@@@@@@@@@@@@@@@@+",
"+@@@@@@@@@@@@@@@@@@@@@@@@@@+        +@@@@@@@@@@@@@@@@@@@@@@@@@@+",
"+@@@@@@@............@@@@@@@+        +@@@@@@@............@@@@@@@+",
"+@@@@@@..++++++++++..@@@@@@+        +@@@@@@..++++++++++..@@@@@@+",
"+@@@@@..+#$$$$$$$$%+..@@@@@+        +@@@@@..+#$$$$$$$$%+..@@@@@+",
"+@@@@..+#$$$$$$$$$%%+..@@@@+        +@@@@..+#$$$$$$$$$%%+..@@@@+",
"+@@@@.+#$$$$$$$$$$%%%+.@@@@+        +@@@@.+#$$$$$$$$$$%%%+.@@@@+",
"+@@@@.+#$$$$$$$$$$$%%+.@@@@+        +@@@@.+#$$$$$$$$$$$%%+.@@@@+",
"+@@@@.+#$$$$$$$$$$$%%+.@@@@+        +@@@@.+#$$$$$$$$$$$%%+.@@@@+",
"+@@@@.+#$$$$&$$$$$$%%+.@@@@+        +@@@@.+#$$$$$$$$$$$%%+.@@@@+",
"+@@@@.+#$$&$$*$$$$$$%+.@@@@+        +@@@@.+#$$$$$$$$$$$$%+.@@@@+",
"+@@@@.+#$&&*=$$&$$$$%+.@@@@+        +@@@@.+#$$$$$$$$$$$$%+.@@@@+",
"+@@@@.+#$$-*$;$$*$$$%+.@@@@+        +@@@@.+#$$$$$$$$$$$$%+.@@@@+",
"+@@@@.+#$=$;>$=$&$$$%+.@@@@+        +@@@@.+#$$$$$$$$$$$$%+.@@@@+",
"+@@@@.+#$$;>>>$,$*$$%+.@@@@+        +@@@@.+#$$$$$$$$$$$$%+.@@@@+",
"+@@@@.+#$$>>>>>=;$$$%+.@@@@+        +@@@@.+#$$$$$$$$$$$$%+.@@@@+",
"+@@@@.+#$&$>>>%%;$$$%+.@@@@+        +@@@@.+#$$$$$$$$$$$$%+.@@@@+",
"+@@@@.+#=$*$>%'$$$$$%+.@@@@+        +@@@@.+#$$$$$$$$$$$$%+.@@@@+",
"+@@@@.+#$;==)%$*$$$$%+.@@@@+        +@@@@.+#$$$$$$$$$$$$%+.@@@@+",
"+@@@@.+#$$$;!~==$$$$%+.@@@@+        +@@@@.+#$$$$$$$$$$$$%+.@@@@+",
"+@@@@.+#$$$$$*$;;$$$%+.@@@@+        +@@@@.+#$$$$$$$$$$$$%+.@@@@+",
"+@@@@.+#$$$$$$$$$$$$%+.@@@@+        +@@@@.+#$$$$$$$$$$$$%+.@@@@+",
"+@@@@.+#$$$$$$$$$$$$%+.@@@@+        +@@@@.+#$$$$$$$$$$$$%+.@@@@+",
"+@@@@.+#$$$$$$$$$$$$%+.@@@@+        +@@@@.+#$$$$$$$$$$$$%+.@@@@+",
"+@@@@.+#$$$$$$$$$$$$%+.@@@@+        +@@@@.+#$$$$$$$$$$$$%+.@@@@+",
"+@@@@.+#$$$$$$$$$$$$%+.@@@@+        +@@@@.+#$$$$$$$$$$$$%+.@@@@+",
"+@@@@.+#$$$$$$$$$$$$%+.@@@@+        +@@@@.+#$$$$$$$$$$$$%+.@@@@+",
"+@@@@.+#$$$$$$$$$$$$%+.@@@@+        +@@@@.+#$$$$$$$$$$$$%+.@@@@+",
"+@@@@.+#$$$$$$$$$$$$%+.@@@@+        +@@@@.+#$$$$$$$$$$$$%+.@@@@+",
"+@@@@.+#$$$$$$$$$$$$%+.@@@@+        +@@@@.+#$$$$$$$$$$$$%+.@@@@+",
"+@@@@.+#$$$$$$$$$$$$%+.@@@@+        +@@@@.+#$$$$$$$$$$$$%+.@@@@+",
"+@@@@.+#$$$$$$$$$$$$%+.@@@@+        +@@@@.+#$$$$$$$$$$$$%+.@@@@+",
"+@@@@.+#$$$$$$$$$$$$%+.@@@@+        +@@@@.+#$$$$$$$$$$$$%+.@@@@+",
"+@@@@.+#$$$$$$$$$$$$%+.@@@@+        +@@@@.+#$$$$$$$$$$$$%+.@@@@+",
"+@@@@.+#$$$$$$$$$$$$%+.@@@@+        +@@@@.+#$$$$$$$$$$$$%+.@@@@+",
"+@@@@.+#$$$$$$$$$$$$%+.@@@@+        +@@@@.+#$$$$$$$$$$$$%+.@@@@+",
"+@@@@.+#$$$$$$$$$$$$%+.@@@@+        +@@@@.+#$$$$$$$$$$$$%+.@@@@+",
"+@@@@.+#$$$$$$$$$$$$%+.@@@@+        +@@@@.+#$$$$$$$$$$$$%+.@@@@+",
"+@@@@.+#$$$$$$$$$$$$%+.@@@@+        +@@@@.+#$$$$$$$$$$$$%+.@@@@+",
"+@@@@.+#$$$$$$$$$$$%%+.@@@@+        +@@@@.+#$$$$$$$$$$$$%+.@@@@+",
"+@@@@.+#$$$$$$$$$$$%%+.@@@@+        +@@@@.+#$$$$$$$$$$$%%+.@@@@+",
"+@@@@.+#$$$$$$$$$$$%%+.@@@@+        +@@@@.+#$$$$$$$$$$$%%+.@@@@+",
"+@@@@.+#$$$$$$$$$$$%%+.@@@@+        +@@@@.+#$$$$$$$$$$$%%+.@@@@+",
"+@@@@.+#$$$$$$$$$$$%%+.@@@@+        +@@@@.+#$$$$$$$$$$$%%+.@@@@+",
"+@@@@..+#$$$$$$$$$%%+..@@@@+        +@@@@..+#$$$$$$$$$%%+..@@@@+",
"+@@@@@..+#$$$$$$$$%+..@@@@@+        +@@@@@..+#$$$$$$$$%+..@@@@@+",
"+@@@@@@..++++++++++..@@@@@@+        +@@@@@@..++++++++++..@@@@@@+",
"+@@@@@@@............@@@@@@@+        +@@@@@@@............@@@@@@@+",
"+@@@@@@@@@@@@@@@@@@@@@@@@@@+        +@@@@@@@@@@@@@@@@@@@@@@@@@@+",
"+@@@@@@@@@@@@@@@@@@@@@@@@@@+        +@@@@@@@@@@@@@@@@@@@@@@@@@@+",
"+@@@@@@@@@@@@@@@@@@@@@@@@@@+        +@@@@@@@@@@@@@@@@@@@@@@@@@@+",
"++@@@@@@@@@@@@@@@@@@@@@@@@@+        +@@@@@@@@@@@@@@@@@@@@@@@@@++",
"++++++++++++++++++++++++++++        ++++++++++++++++++++++++++++",
".+++++++++++++++++++++++++++        +++++++++++++++++++++++++++.",
"...........................+        +...........................",
"...........................+        +...........................",
"...........................+        +..........................."};
