/* XPM */
static char *floor3[] = {
/* columns rows colors chars-per-pixel */
"64 64 5 1 ",
"  c black",
". c #121214",
"X c #262629",
"o c #464646",
"O c #B4B4B4",
/* pixels */
"XXXXXXXXXXXXXXXXXXXXXXXXXXXXXXXXXXXXXXXXXXXXXXXXXXXXXXXXXXXXXXXX",
"XXXXXXXXXXXXXXXXXXXXXXXXXXXXXXXXXXXXXXXXXXXXXXXXXXXXXXXXXXXXXXXX",
"XXXXXXXXXXXXXXXXXXXXXXXXXXXXXXXXXXXXXXXXXXXXXXXXXXXXXXXXXXXXXXXX",
"XXXXooooooooooooooooooooooooooooooooooooooooooooooooooooooooXXXX",
"XXXooooooooooooooooooooooooooooooooooooooooooooooooooooooooooXXX",
"XXXoooo                                                  ooooXXX",
"XXXooooo                                                oooooXXX",
"XXXoo ooo                                              ooo ooXXX",
"XXXoo  ooo                                            ooo  ooXXX",
"XXXoo   ooo                                          ooo   ooXXX",
"XXXooooooooooooooooooooooooooooooooooooooooooooooooooooooooooXXX",
"XXXoo     ooo                                      ooo     ooXXX",
"XXXoo      ooo                                    ooo      ooXXX",
"XXXoo       ooo                                  ooo       ooXXX",
"XXXoo        ooo                                ooo        ooXXX",
"XXXoo         ooo                              ooo         ooXXX",
"XXXooooooooooooooooooooooooooooooooooooooooooooooooooooooooooXXX",
"XXXoo           ooo                          ooo           ooXXX",
"XXXoo            ooo                        ooo            ooXXX",
"XXXoo             ooo                      ooo             ooXXX",
"XXXoo              ooo                    ooo              ooXXX",
"XXXoo               ooo                  ooo               ooXXX",
"XXXooooooooooooooooooooooooooooooooooooooooooooooooooooooooooXXX",
"XXXoo                 ooo              ooo                 ooXXX",
"XXXoo                  ooo            ooo                  ooXXX",
"XXXoo                   ooo          ooo                   ooXXX",
"XXXoo                    ooo        ooo                    ooXXX",
"XXXoo                     ooo      ooo                     ooXXX",
"XXXooooooooooooooooooooooooooooooooooooooooooooooooooooooooooXXX",
"XXXoo                       oOOOoooo                       ooXXX",
"XXXoo                       oOOooooo                       ooXXX",
"XXXoo                       oOoooooo                       ooXXX",
"XXXoo                       oooooooo                       ooXXX",
"XXXoo                       oooooooo                       ooXXX",
"XXXoo                       oooooooo                       ooXXX",
"XXXooooooooooooooooooooooooooooooooooooooooooooooooooooooooooXXX",
"XXXoo                     ooo      ooo                     ooXXX",
"XXXoo                    ooo        ooo                    ooXXX",
"XXXoo                   ooo          ooo                   ooXXX",
"XXXoo                  ooo            ooo                  ooXXX",
"XXXoo                 ooo              ooo                 ooXXX",
"XXXooooooooooooooooooooooooooooooooooooooooooooooooooooooooooXXX",
"XXXoo               ooo                  ooo               ooXXX",
"XXXoo              ooo                    ooo              ooXXX",
"XXXoo             ooo                      ooo             ooXXX",
"XXXoo            ooo                        ooo            ooXXX",
"XXXoo           ooo                          ooo           ooXXX",
"XXXooooooooooooooooooooooooooooooooooooooooooooooooooooooooooXXX",
"XXXoo         ooo                              ooo         ooXXX",
"XXXoo        ooo                                ooo        ooXXX",
"XXXoo       ooo                                  ooo       ooXXX",
"XXXoo      ooo                                    ooo      ooXXX",
"XXXoo     ooo                                      ooo     ooXXX",
"XXXooooooooooooooooooooooooooooooooooooooooooooooooooooooooooXXX",
"XXXoo   ooo                                          ooo   ooXXX",
"XXXoo  ooo                                            ooo  ooXXX",
"XXXoo ooo                                              ooo ooXXX",
"XXXooooo                                                oooooXXX",
"XXXooooooooooooooooooooooooooooooooooooooooooooooooooooooooooXXX",
"XXXooooooooooooooooooooooooo.XXXXXX.oooooooooooooooooooooooooXXX",
"XXXXooooooooooooooooooooooooooooooooooooooooooooooooooooooooXXXX",
"XXXXXXXXXXXXXXXXXXXXXXXXXXXXXXXXXXXXXXXXXXXXXXXXXXXXXXXXXXXXXXXX",
"XXXXXXXXXXXXXXXXXXXXXXXXXXXXXXXXXXXXXXXXXXXXXXXXXXXXXXXXXXXXXXXX",
"XXXXXXXXXXXXXXXXXXXXXXXXXXXXXXXXXXXXXXXXXXXXXXXXXXXXXXXXXXXXXXXX"
};
