/* XPM */
static char *_757bbbd95234194945b41234d88027bY432H47nvg5ffk9R[] = {
/* columns rows colors chars-per-pixel */
"64 64 7 1 ",
"  c black",
". c #464646",
"X c #6F3198",
"o c #9471AB",
"O c gray53",
"+ c #B4B4B4",
"@ c #BC98D4",
/* pixels */
"................................................................",
"................................................................",
"......                                                    ......",
".....                                                      .....",
"....                                                        ....",
"...    ++++++++++++++++++++++++++++++++++++++++++++++++++    ...",
"..    +.......................OO++.......................+    ..",
"..   +........................OO++........................+   ..",
"..   +........................OO++........................+   ..",
"..   +........................OO++........................+   ..",
"..   +........O++++++++.......OO++.......O++++++++........+   ..",
"..   +.......OO       ++......OO++......OO       ++.......+   ..",
"..   +......OO ooooooo ++.....OO++.....OO ooooooo ++......+   ..",
"..   +.....OO ooooooooo ++....OO++....OO ooooooooo ++.....+   ..",
"..   +....OO oooXXXXXooo ++...OO++...OO oooXXXXXooo ++....+   ..",
"..   +....O oooXXXXXXXooo +...OO++...O oooXXXXXXXooo +....+   ..",
"..   +....O ooXXX@XXXXXoo +...OO++...O ooXXX@XXXXXoo +....+   ..",
"..   +....O ooXX@XXXXXXoo +...OO++...O ooXX@XXXXXXoo +....+   ..",
"..   +....O ooXXXXXXXXXoo +...OO++...O ooXXXXXXXXXoo +....+   ..",
"..   +....O ooXXXXXXXXXoo +...OO++...O ooXXXXXXXXXoo +....+   ..",
"..   +....O ooXXXXXXXXXoo +...OO++...O ooXXXXXXXXXoo +....+   ..",
"..   +....O ooXXXXXXXXXoo +...OO++...O ooXXXXXXXXXoo +....+   ..",
"..   +....O ooXXXXXXXXXoo +...OO++...O ooXXXXXXXXXoo +....+   ..",
"..   +....O ooXXXXXXXXXoo +...OO++...O ooXXXXXXXXXoo +....+   ..",
"..   +....O ooXXXXXXXXXoo +...OO++...O ooXXXXXXXXXoo +....+   ..",
"..   +....O oooXXXXXXXooo +...OO++...O oooXXXXXXXooo +....+   ..",
"..   +....OO oooXXXXXooo ++...OO++...OO oooXXXXXooo ++....+   ..",
"..   +.....OO ooooooooo ++....OO++....OO ooooooooo ++.....+   ..",
"..   +......OO ooooooo ++.....OO++.....OO ooooooo ++......+   ..",
"..   +.......OO       ++......OO++......OO       ++.......+   ..",
"..   +........OOOOOOOO+.......OO++.......OOOOOOOO+........+   ..",
"..   +........................OO++........................+   ..",
"..   +........................OO++........................+   ..",
"..   +........O++++++++.......OO++.......O++++++++........+   ..",
"..   +.......OO       ++......OO++......OO       ++.......+   ..",
"..   +......OO ooooooo ++.....OO++.....OO ooooooo ++......+   ..",
"..   +.....OO ooooooooo ++....OO++....OO ooooooooo ++.....+   ..",
"..   +....OO oooXXXXXooo ++...OO++...OO oooXXXXXooo ++....+   ..",
"..   +....O oooXXXXXXXooo +...OO++...O oooXXXXXXXooo +....+   ..",
"..   +....O ooXXX@XXXXXoo +...OO++...O ooXXX@XXXXXoo +....+   ..",
"..   +....O ooXX@XXXXXXoo +...OO++...O ooXX@XXXXXXoo +....+   ..",
"..   +....O ooXXXXXXXXXoo +...OO++...O ooXXXXXXXXXoo +....+   ..",
"..   +....O ooXXXXXXXXXoo +...OO++...O ooXXXXXXXXXoo +....+   ..",
"..   +....O ooXXXXXXXXXoo +...OO++...O ooXXXXXXXXXoo +....+   ..",
"..   +....O ooXXXXXXXXXoo +...OO++...O ooXXXXXXXXXoo +....+   ..",
"..   +....O ooXXXXXXXXXoo +...OO++...O ooXXXXXXXXXoo +....+   ..",
"..   +....O ooXXXXXXXXXoo +...OO++...O ooXXXXXXXXXoo +....+   ..",
"..   +....O ooXXXXXXXXXoo +...OO++...O ooXXXXXXXXXoo +....+   ..",
"..   +....O oooXXXXXXXooo +...OO++...O oooXXXXXXXooo +....+   ..",
"..   +....OO oooXXXXXooo ++...OO++...OO oooXXXXXooo ++....+   ..",
"..   +.....OO ooooooooo ++....OO++....OO ooooooooo ++.....+   ..",
"..   +......OO ooooooo ++.....OO++.....OO ooooooo ++......+   ..",
"..   +.......OO       ++......OO++......OO       ++.......+   ..",
"..   +........OOOOOOOO+.......OO++.......OOOOOOOO+........+   ..",
"..   +........................OO++........................+   ..",
"..   +........................OO++........................+   ..",
"..   +........................OO++........................+   ..",
"..    +.......................OO++.......................+    ..",
"...    ++++++++++++++++++++++++++++++++++++++++++++++++++    ...",
"....                                                        ....",
".....                                                      .....",
"......                                                    ......",
"................................................................",
"................................................................"
};
