/* XPM */
static char *result[] = {
/* columns rows colors chars-per-pixel */
"32 32 2 1 ",
"  c #464646",
". c #2F3699",
/* pixels */
"................................",
"...                          ...",
"....                        ....",
". ...                      ... .",
".  ...                    ...  .",
".   ...                  ...   .",
".    ...                ...    .",
".     ...              ...     .",
".      ...            ...      .",
".       ...          ...       .",
".        ...        ...        .",
".         ...      ...         .",
".          ...    ...          .",
".           ...  ...           .",
".            ......            .",
".             ....             .",
".             ....             .",
".            ......            .",
".           ...  ...           .",
".          ...    ...          .",
".         ...      ...         .",
".        ...        ...        .",
".       ...          ...       .",
".      ...            ...      .",
".     ...              ...     .",
".    ...                ...    .",
".   ...                  ...   .",
".  ...                    ...  .",
". ...                      ... .",
"....                        ....",
"...                          ...",
"................................"
};
